# Blender 3.5.1
# www.blender.org
mtllib cubble6.mtl
o cubble6
v -0.581890 0.076275 0.167295
v -0.651347 0.049579 0.134783
v 0.661699 0.210540 -0.073955
v 0.690493 0.015959 -0.145033
v -0.447827 0.210540 0.296683
v -0.476622 0.015959 0.367761
v 0.607019 0.243989 0.270928
v 0.707055 0.015959 0.330967
v -0.014167 0.015959 0.714166
v -0.447450 0.210540 -0.463358
v -0.012775 0.210540 0.644010
v -0.496193 0.015959 -0.513834
v 0.489537 0.015959 0.508386
v 0.011717 0.210540 -0.636326
v 0.472027 0.177091 0.485972
v 0.012994 0.015959 -0.705645
v 0.349321 0.064983 -0.435180
v 0.420731 0.017935 -0.482353
vn -0.2838 0.9491 -0.1370
vn 0.9868 0.1586 -0.0343
vn -0.5754 0.2811 0.7681
vn -0.0000 -1.0000 -0.0000
vn 0.3797 0.8756 -0.2985
vn -0.5014 0.7200 0.4799
vn -0.9262 0.2934 -0.2368
vn 0.3590 0.3143 0.8788
vn -0.7075 0.7067 -0.0004
vn -0.3347 0.3143 -0.8884
vn -0.0000 1.0000 -0.0000
vn 0.6224 0.1738 0.7631
vn 0.2511 0.8484 -0.4660
vn 0.0062 -1.0000 -0.0024
vn 0.4731 0.8648 -0.1683
vn -0.4940 0.8686 -0.0399
vn 0.9008 0.4220 0.1019
vn -0.5836 0.3534 0.7311
vn -0.0053 -1.0000 -0.0016
vn 0.6362 0.3460 -0.6896
vn -0.8018 0.3061 0.5132
vn -0.4004 0.9099 0.1084
vn -0.1945 -0.9809 0.0043
vn 0.3160 0.1643 0.9344
vn 0.0693 0.9976 0.0013
vn 0.6859 0.4512 0.5709
vn 0.5772 0.2774 -0.7680
vt 0.625000 0.500000
vt 0.375000 0.500000
vt 0.625000 0.750000
vt 0.375000 0.750000
vt 0.625000 0.250000
vt 0.875000 0.500000
vt 0.375000 0.250000
vt 0.125000 0.500000
vt 0.875000 0.750000
vt 0.625000 1.000000
vt 0.625000 0.000000
vt 0.125000 0.750000
vt 0.375000 1.000000
vt 0.375000 0.000000
vt 0.375000 0.188784
vt 0.125000 0.561216
vt 0.625000 0.561216
vt 0.625000 0.188784
vt 0.875000 0.561216
vt 0.375000 0.561216
vt 0.375000 0.031097
vt 0.125000 0.718903
vt 0.375000 0.062195
vt 0.125000 0.687805
vt 0.625000 0.687805
vt 0.875000 0.718903
vt 0.625000 0.062195
vt 0.875000 0.687805
vt 0.625000 0.031097
vt 0.375000 0.687805
vt 0.625000 0.718903
vt 0.375000 0.718903
s 0
usemtl Material
f 17/31/1 7/9/1 3/3/1
f 3/3/2 8/13/2 4/4/2
f 11/18/3 6/7/3 9/15/3
f 13/22/4 4/4/4 8/12/4
f 17/31/5 4/4/5 18/32/5
f 6/7/6 1/1/6 2/2/6
f 2/2/7 10/17/7 12/20/7
f 6/8/4 12/20/4 9/16/4
f 13/23/8 11/18/8 9/15/8
f 5/6/9 10/17/9 1/1/9
f 10/17/10 16/30/10 12/20/10
f 12/20/4 13/24/4 9/16/4
f 11/19/11 14/25/11 10/17/11
f 8/14/12 15/29/12 13/21/12
f 16/30/13 17/31/13 18/32/13
f 13/24/14 16/30/14 18/32/14
f 14/25/15 15/26/15 17/31/15
f 17/31/16 15/26/16 7/9/16
f 3/3/17 7/10/17 8/13/17
f 11/18/18 5/5/18 6/7/18
f 13/22/19 18/32/19 4/4/19
f 17/31/20 3/3/20 4/4/20
f 6/7/21 5/5/21 1/1/21
f 2/2/22 1/1/22 10/17/22
f 6/8/23 2/2/23 12/20/23
f 13/23/24 15/27/24 11/18/24
f 5/6/11 11/19/11 10/17/11
f 10/17/10 14/25/10 16/30/10
f 12/20/4 16/30/4 13/24/4
f 11/19/25 15/28/25 14/25/25
f 8/14/26 7/11/26 15/29/26
f 16/30/27 14/25/27 17/31/27
