# Blender 3.5.1
# www.blender.org
mtllib cubble1.mtl
o cubble1
v 0.925740 0.226852 -0.726406
v 1.000276 0.000000 -0.797408
v 0.940441 0.210540 0.940517
v 1.000000 0.000000 1.000000
v -0.768772 0.198461 -0.863019
v -0.839696 0.000000 -0.932713
v -0.824542 0.195279 1.009244
v -0.884101 -0.015261 1.068727
v -1.164497 0.000000 -0.510271
v 1.110118 0.194229 -0.491171
v -1.069699 0.183005 -0.488231
v 1.164497 0.000000 -0.510271
v -1.151251 0.000000 0.502443
v 1.091733 0.210744 0.680321
v -1.119489 0.250154 0.470961
v 1.142202 -0.000204 0.626716
v -0.743604 0.000000 -0.974032
v -0.734818 0.199908 1.006696
v -0.779108 -0.010632 1.066180
v -0.699314 0.210540 -0.914397
v -0.865966 0.000000 -0.510271
v -0.397030 0.242143 -0.503983
v -0.857275 -0.000026 0.518372
v -0.803966 0.210566 0.499220
v 0.793536 -0.001234 1.007680
v 0.750393 0.210540 -0.758270
v 0.797900 0.000000 -0.817905
v 0.746029 0.209306 0.948197
v 0.928864 0.000000 -0.510271
v 0.910165 -0.000183 0.614143
vn -0.0507 0.9983 0.0279
vn 0.0115 0.2688 0.9631
vn -0.7136 0.4357 -0.5486
vn 0.0059 -1.0000 -0.0009
vn 0.9263 0.1320 0.3528
vn 0.0953 0.3257 -0.9407
vn 0.8333 0.2802 -0.4766
vn -0.0000 -1.0000 -0.0000
vn -0.8885 0.4588 0.0116
vn -0.1477 0.9885 0.0327
vn -0.8424 0.3533 0.4069
vn 0.9633 0.2678 0.0189
vn -0.0000 -1.0000 -0.0002
vn -0.0877 0.9961 -0.0042
vn 0.0319 0.9994 -0.0136
vn 0.0316 0.9993 0.0185
vn -0.3584 0.4207 -0.8334
vn 0.0014 -0.9996 -0.0276
vn 0.0343 0.2650 0.9636
vn -0.0005 1.0000 0.0047
vn -0.0065 1.0000 -0.0030
vn 0.0340 0.2806 0.9592
vn -0.1327 0.9623 0.2374
vn 0.0975 0.2522 -0.9628
vn 0.0052 -0.9998 -0.0201
vn 0.1214 0.9920 0.0346
vn 0.0134 0.2692 0.9630
vn -0.7070 0.4455 -0.5493
vn -0.0001 -1.0000 0.0005
vn 0.8062 0.3606 0.4691
vn 0.1435 0.2996 -0.9432
vn 0.7447 0.4096 -0.5269
vn -0.9912 0.1183 -0.0597
vn -0.0882 0.9957 -0.0298
vn -0.8568 0.1701 0.4868
vn 0.9732 0.2298 0.0120
vn -0.0001 -1.0000 -0.0002
vn 0.1298 0.9896 -0.0625
vn -0.0030 0.9995 0.0303
vn -0.0001 -1.0000 -0.0000
vn 0.0090 0.9965 -0.0833
vn -0.5976 0.3324 -0.7297
vn 0.0434 -0.9987 -0.0255
vn 0.0361 0.2792 0.9595
vn -0.0055 0.9997 0.0217
vn 0.1024 0.2924 -0.9508
vn 0.0001 -1.0000 -0.0027
vt 0.625000 0.500000
vt 0.375000 0.500000
vt 0.625000 0.750000
vt 0.375000 0.750000
vt 0.875000 0.500000
vt 0.625000 0.250000
vt 0.375000 0.250000
vt 0.125000 0.500000
vt 0.875000 0.750000
vt 0.625000 1.000000
vt 0.625000 0.000000
vt 0.375000 1.000000
vt 0.375000 0.000000
vt 0.125000 0.750000
vt 0.375000 0.188784
vt 0.125000 0.561216
vt 0.650293 0.561216
vt 0.625000 0.561216
vt 0.625000 0.188784
vt 0.875000 0.561216
vt 0.375000 0.561216
vt 0.375000 0.062195
vt 0.125000 0.687805
vt 0.625000 0.687805
vt 0.650293 0.687805
vt 0.625000 0.062195
vt 0.875000 0.687805
vt 0.375000 0.687805
vt 0.157045 0.500000
vt 0.375000 0.282045
vt 0.625000 0.967955
vt 0.842955 0.750000
vt 0.375000 0.967955
vt 0.157045 0.750000
vt 0.842955 0.500000
vt 0.625000 0.282045
vt 0.157045 0.561216
vt 0.842955 0.561216
vt 0.157045 0.687805
vt 0.842955 0.687805
vt 0.375000 0.775293
vt 0.349707 0.750000
vt 0.650293 0.500000
vt 0.625000 0.474707
vt 0.349707 0.500000
vt 0.375000 0.474707
vt 0.650293 0.750000
vt 0.625000 0.775293
vt 0.349707 0.561216
vt 0.349707 0.687805
s 0
usemtl Material
f 24/40/1 7/9/1 18/32/1
f 19/33/2 7/10/2 8/12/2
f 11/19/3 6/7/3 9/15/3
f 30/50/4 4/4/4 25/42/4
f 14/24/5 4/4/5 16/28/5
f 27/46/6 1/1/6 2/2/6
f 2/2/7 10/18/7 12/21/7
f 2/2/8 29/49/8 27/45/8
f 13/22/9 11/19/9 9/15/9
f 5/5/10 22/38/10 20/35/10
f 7/11/11 13/22/11 8/13/11
f 10/18/12 16/28/12 12/21/12
f 12/21/13 30/50/13 29/49/13
f 11/20/14 24/40/14 22/38/14
f 22/38/15 14/25/15 10/17/15
f 21/37/8 13/23/8 9/16/8
f 26/43/16 22/38/16 10/17/16
f 6/8/8 21/37/8 9/16/8
f 5/6/17 17/30/17 6/7/17
f 23/39/18 8/14/18 13/23/18
f 25/41/19 18/31/19 19/33/19
f 24/40/20 28/47/20 14/25/20
f 14/25/21 28/47/21 3/3/21
f 3/3/22 25/41/22 4/4/22
f 1/1/23 26/43/23 10/18/23
f 29/49/8 23/39/8 21/37/8
f 27/45/8 21/37/8 17/29/8
f 20/36/24 27/46/24 17/30/24
f 23/39/25 25/42/25 19/34/25
f 24/40/26 15/27/26 7/9/26
f 19/33/27 18/31/27 7/10/27
f 11/19/28 5/6/28 6/7/28
f 30/50/29 16/28/29 4/4/29
f 14/24/30 3/3/30 4/4/30
f 27/46/31 26/44/31 1/1/31
f 2/2/32 1/1/32 10/18/32
f 2/2/8 12/21/8 29/49/8
f 13/22/33 15/26/33 11/19/33
f 5/5/34 11/20/34 22/38/34
f 7/11/35 15/26/35 13/22/35
f 10/18/36 14/24/36 16/28/36
f 12/21/37 16/28/37 30/50/37
f 11/20/38 15/27/38 24/40/38
f 22/38/39 24/40/39 14/25/39
f 21/37/40 23/39/40 13/23/40
f 26/43/41 20/35/41 22/38/41
f 6/8/8 17/29/8 21/37/8
f 5/6/42 20/36/42 17/30/42
f 23/39/43 19/34/43 8/14/43
f 25/41/44 28/48/44 18/31/44
f 24/40/45 18/32/45 28/47/45
f 3/3/44 28/48/44 25/41/44
f 29/49/37 30/50/37 23/39/37
f 27/45/8 29/49/8 21/37/8
f 20/36/46 26/44/46 27/46/46
f 23/39/47 30/50/47 25/42/47
