# Blender 3.5.1
# www.blender.org
mtllib cubble2.mtl
o cubble2
v 0.901766 0.210540 -0.901766
v 1.000000 0.000000 -0.902697
v 0.901766 0.210540 0.927414
v 0.956601 0.000000 0.994909
v -0.901766 0.210540 -0.777161
v -0.950124 0.000000 -0.750343
v -0.901766 0.210540 0.901766
v -1.000000 0.000000 1.000000
v -1.164497 0.000000 -0.385666
v 1.050104 0.210540 -0.460145
v -1.050104 0.210540 -0.386534
v 1.164497 0.000000 -0.510271
v -1.151251 0.000000 0.600370
v 1.038159 0.210540 0.323237
v -1.038159 0.210540 0.551013
v 1.151251 0.000000 0.372594
vn -0.0000 1.0000 -0.0000
vn 0.0024 0.4219 0.9066
vn -0.7813 0.4226 -0.4593
vn -0.0000 -1.0000 -0.0000
vn 0.9024 0.3255 0.2823
vn -0.0778 -0.0319 -0.9965
vn 0.7932 0.5101 -0.3325
vn -0.8797 0.4753 0.0118
vn -0.8014 0.5155 0.3033
vn 0.8799 0.4749 0.0132
vn -0.0136 0.3020 0.9532
vn -0.9217 0.1671 -0.3500
vn 0.8454 0.4989 0.1909
vn -0.0685 -0.1106 -0.9915
vn 0.8665 0.4056 -0.2910
vn -0.8786 0.4774 0.0112
vn -0.8043 0.5053 0.3127
vn 0.8796 0.4756 0.0134
vt 0.625000 0.500000
vt 0.375000 0.500000
vt 0.625000 0.750000
vt 0.375000 0.750000
vt 0.625000 0.250000
vt 0.875000 0.500000
vt 0.375000 0.250000
vt 0.125000 0.500000
vt 0.875000 0.750000
vt 0.625000 1.000000
vt 0.625000 0.000000
vt 0.375000 1.000000
vt 0.125000 0.750000
vt 0.375000 0.000000
vt 0.375000 0.188784
vt 0.125000 0.561216
vt 0.625000 0.561216
vt 0.625000 0.188784
vt 0.875000 0.561216
vt 0.375000 0.561216
vt 0.125000 0.687805
vt 0.375000 0.062195
vt 0.625000 0.687805
vt 0.625000 0.062195
vt 0.875000 0.687805
vt 0.375000 0.687805
s 0
usemtl Material
f 14/23/1 7/9/1 3/3/1
f 4/4/2 7/10/2 8/12/2
f 11/18/3 6/7/3 9/15/3
f 13/21/4 4/4/4 8/13/4
f 16/26/5 3/3/5 4/4/5
f 6/7/6 1/1/6 2/2/6
f 2/2/7 10/17/7 12/20/7
f 6/8/4 12/20/4 9/16/4
f 15/24/8 9/15/8 13/22/8
f 5/6/1 10/17/1 1/1/1
f 7/11/9 13/22/9 8/14/9
f 10/17/10 16/26/10 12/20/10
f 9/16/4 16/26/4 13/21/4
f 11/19/1 14/23/1 10/17/1
f 14/23/1 15/25/1 7/9/1
f 4/4/11 3/3/11 7/10/11
f 11/18/12 5/5/12 6/7/12
f 13/21/4 16/26/4 4/4/4
f 16/26/13 14/23/13 3/3/13
f 6/7/14 5/5/14 1/1/14
f 2/2/15 1/1/15 10/17/15
f 6/8/4 2/2/4 12/20/4
f 15/24/16 11/18/16 9/15/16
f 5/6/1 11/19/1 10/17/1
f 7/11/17 15/24/17 13/22/17
f 10/17/18 14/23/18 16/26/18
f 9/16/4 12/20/4 16/26/4
f 11/19/1 15/25/1 14/23/1
