# Blender 3.5.1
# www.blender.org
mtllib cubble4.mtl
o cubble4
v -0.861240 0.210408 0.354882
v -0.972226 0.000000 0.369511
v -1.014777 0.193006 -0.694043
v -0.978661 0.000000 -0.867150
v 0.665945 0.210408 0.767190
v 0.819414 0.000000 0.805966
v 0.938766 0.200005 -0.798663
v 1.132195 -0.015261 -0.860595
v 1.237712 0.000000 0.464906
v -1.032485 0.179449 0.249646
v 1.136205 0.183466 0.432273
v -1.111981 -0.015328 0.272356
v 1.547181 0.000000 -0.373769
v 1.483520 0.249169 -0.343138
v -1.130148 -0.000204 -0.584790
v 0.721881 0.000000 0.837605
v 0.999971 -0.010632 -0.862478
v 0.920187 0.000000 0.455262
v 1.195683 -0.000026 -0.397784
v -0.771162 -0.001234 -0.867280
v -0.815788 0.000000 0.457677
v -0.707727 0.209200 -0.800735
v -0.921861 0.000000 0.283194
v -0.897565 -0.000183 -0.564604
vn 0.0240 0.2962 -0.9548
vn 0.5680 0.4382 0.6967
vn -0.0059 -1.0000 0.0010
vn -0.8531 0.2507 -0.4575
vn -0.4677 0.3044 0.8298
vn -0.5643 0.3191 0.7614
vn -0.0000 -1.0000 -0.0000
vn 0.9205 0.1934 0.3396
vn 0.7299 0.2640 -0.6305
vn -0.9245 0.3804 0.0263
vn 0.0802 -0.9968 0.0025
vn -0.0031 0.9999 0.0143
vn 0.0001 -1.0000 -0.0000
vn 0.0252 0.9472 -0.3196
vn 0.2865 0.3717 0.8831
vn -0.0022 -0.9994 0.0332
vn 0.0041 0.2910 -0.9567
vn -0.0311 0.9976 0.0619
vn 0.0035 0.6680 -0.7441
vn 0.0001 -1.0000 0.0001
vn -0.2321 0.2527 0.9393
vn -0.0018 -0.9997 0.0236
vn 0.5195 0.5058 0.6887
vn 0.0001 -1.0000 -0.0006
vn -0.5364 0.3368 0.7738
vn 0.0777 -0.9959 0.0453
vn 0.7749 0.4980 0.3893
vn 0.4754 0.6096 -0.6343
vn -0.8607 0.5090 -0.0088
vn 0.0016 -0.9998 -0.0177
vn -0.0323 0.9970 0.0700
vn 0.0157 0.9982 -0.0582
vn -0.0355 -0.9987 0.0377
vn 0.0029 0.3007 -0.9537
vn 0.0057 0.9935 -0.1140
vn -0.3221 0.3723 -0.8704
vn -0.0000 -1.0000 0.0002
vn -0.2407 0.3836 0.8916
vn -0.0053 -1.0000 0.0013
vt 0.625000 0.500000
vt 0.650293 0.500000
vt 0.625000 0.474707
vt 0.375000 0.500000
vt 0.625000 0.687805
vt 0.650293 0.687805
vt 0.625000 0.750000
vt 0.375000 0.750000
vt 0.625000 0.250000
vt 0.842955 0.500000
vt 0.625000 0.282045
vt 0.375000 0.250000
vt 0.125000 0.500000
vt 0.625000 1.000000
vt 0.625000 0.000000
vt 0.625000 0.967955
vt 0.842955 0.750000
vt 0.375000 1.000000
vt 0.375000 0.000000
vt 0.125000 0.750000
vt 0.375000 0.188784
vt 0.125000 0.561216
vt 0.650293 0.561216
vt 0.625000 0.561216
vt 0.625000 0.188784
vt 0.842955 0.561216
vt 0.375000 0.561216
vt 0.375000 0.062195
vt 0.125000 0.687805
vt 0.625000 0.062195
vt 0.842955 0.687805
vt 0.375000 0.687805
vt 0.375000 0.282045
vt 0.157045 0.500000
vt 0.375000 0.967955
vt 0.157045 0.750000
vt 0.157045 0.561216
vt 0.157045 0.687805
vt 0.375000 0.775293
vt 0.349707 0.750000
vt 0.349707 0.500000
vt 0.375000 0.474707
vt 0.650293 0.750000
vt 0.625000 0.775293
vt 0.349707 0.561216
vt 0.349707 0.687805
s 0
usemtl Material
f 17/35/1 7/14/1 8/18/1
f 11/25/2 6/12/2 9/21/2
f 24/46/3 4/8/3 20/40/3
f 15/32/4 3/7/4 4/8/4
f 21/42/5 1/1/5 2/4/5
f 2/4/6 10/24/6 12/27/6
f 2/4/7 23/45/7 21/41/7
f 14/30/8 9/21/8 13/28/8
f 8/19/9 14/30/9 13/28/9
f 10/24/10 15/32/10 12/27/10
f 12/27/11 24/46/11 23/45/11
f 11/26/12 3/6/12 10/23/12
f 9/22/13 19/38/13 13/29/13
f 1/2/14 11/26/14 10/23/14
f 6/13/7 18/37/7 9/22/7
f 6/12/15 5/11/15 16/33/15
f 19/38/16 8/20/16 13/29/16
f 20/39/17 7/16/17 17/35/17
f 14/31/18 22/43/18 3/6/18
f 3/7/19 20/39/19 4/8/19
f 18/37/20 24/46/20 19/38/20
f 21/41/7 18/37/7 16/34/7
f 5/11/21 21/42/21 16/33/21
f 24/46/22 17/36/22 19/38/22
f 11/25/23 5/9/23 6/12/23
f 24/46/24 15/32/24 4/8/24
f 2/4/25 1/1/25 10/24/25
f 2/4/26 12/27/26 23/45/26
f 14/30/27 11/25/27 9/21/27
f 8/19/28 7/15/28 14/30/28
f 10/24/29 3/5/29 15/32/29
f 12/27/30 15/32/30 24/46/30
f 11/26/31 14/31/31 3/6/31
f 9/22/7 18/37/7 19/38/7
f 1/2/32 5/10/32 11/26/32
f 6/13/7 16/34/7 18/37/7
f 19/38/33 17/36/33 8/20/33
f 20/39/34 22/44/34 7/16/34
f 14/31/35 7/17/35 22/43/35
f 3/7/36 22/44/36 20/39/36
f 18/37/37 23/45/37 24/46/37
f 21/41/7 23/45/7 18/37/7
f 5/11/38 1/3/38 21/42/38
f 24/46/39 20/40/39 17/36/39
