# Blender 3.5.1
# www.blender.org
mtllib cubble8.mtl
o cubble8
v -0.846625 0.000000 -0.747240
v 1.052853 0.000000 -0.437448
v -0.927917 0.207991 0.721793
v -1.078810 0.000000 0.682415
v 1.103484 0.210540 0.652510
v 0.850290 0.000000 0.747282
v -0.762509 0.000000 0.805846
v -0.779306 0.210540 -0.697594
v -0.899126 0.207991 0.792634
v -0.343853 0.000000 -0.815284
v 0.341493 0.000000 0.793428
v 0.588142 0.210540 -0.441645
v 0.307255 0.210540 0.694123
v 0.651045 0.000000 -0.525769
v -1.441524 0.000000 -0.199018
v 1.177749 0.088916 0.358683
v 1.200335 0.000000 0.349120
v -1.297907 0.210540 -0.179842
v -0.725544 0.000000 -0.103420
v 0.755035 0.000000 0.084287
v 1.091387 0.210540 0.076062
vn 0.8340 0.5515 -0.0175
vn 0.7457 0.1189 0.6556
vn -0.3622 0.0870 0.9280
vn -0.0000 -1.0000 -0.0000
vn 0.1955 0.4137 -0.8892
vn -0.5990 0.4678 -0.6500
vn -0.1293 0.2666 -0.9551
vn 0.0102 0.4279 0.9038
vn -0.5676 -0.7903 0.2307
vn 0.0813 0.4360 0.8963
vn 0.2532 0.4232 -0.8699
vn -0.0000 1.0000 -0.0000
vn -0.6576 0.3656 -0.6587
vn -0.7943 0.5121 0.3269
vn 0.9490 0.2602 -0.1779
vn 0.3854 0.8433 -0.3747
vn 0.6678 -0.6129 0.4225
vn -0.7998 -0.5047 0.3250
vn 0.0806 0.1158 0.9900
vn 0.0487 0.3607 0.9314
vn 0.1347 0.6810 -0.7198
vn -0.0018 1.0000 0.0034
vn -0.7933 0.5136 0.3270
vn 0.9490 0.2603 -0.1779
vt 0.625000 0.500000
vt 0.375000 0.500000
vt 0.375000 0.750000
vt 0.625000 0.750000
vt 0.875000 0.500000
vt 0.625000 0.250000
vt 0.125000 0.500000
vt 0.375000 0.250000
vt 0.875000 0.750000
vt 0.625000 1.000000
vt 0.625000 0.000000
vt 0.375000 1.000000
vt 0.375000 0.000000
vt 0.125000 0.750000
vt 0.125000 0.561216
vt 0.375000 0.188784
vt 0.625000 0.561216
vt 0.625000 0.188784
vt 0.875000 0.561216
vt 0.375000 0.561216
vt 0.375000 0.062195
vt 0.125000 0.687805
vt 0.625000 0.687805
vt 0.625000 0.062195
vt 0.875000 0.687805
vt 0.375000 0.687805
vt 0.375000 0.375000
vt 0.250000 0.500000
vt 0.625000 0.875000
vt 0.750000 0.750000
vt 0.375000 0.875000
vt 0.250000 0.750000
vt 0.750000 0.500000
vt 0.750000 0.561216
vt 0.625000 0.375000
vt 0.250000 0.561216
vt 0.250000 0.687805
vt 0.750000 0.687805
s 0
usemtl Material
f 21/38/1 5/9/1 16/30/1
f 16/29/2 6/12/2 17/31/2
f 7/16/3 3/6/3 4/8/3
f 20/37/4 2/3/4 17/32/4
f 14/26/5 12/23/5 2/3/5
f 15/27/6 18/35/6 1/2/6
f 1/1/7 8/17/7 10/20/7
f 1/2/4 19/36/4 15/28/4
f 13/24/8 7/16/8 11/21/8
f 18/33/9 3/5/9 9/19/9
f 6/13/10 13/24/10 11/21/10
f 10/20/11 12/23/11 14/26/11
f 19/36/4 14/26/4 20/37/4
f 18/34/12 13/25/12 21/38/12
f 18/34/12 12/23/12 8/17/12
f 19/36/4 11/22/4 7/15/4
f 1/1/13 18/34/13 8/17/13
f 4/7/4 19/36/4 7/15/4
f 4/8/14 18/35/14 15/27/14
f 20/37/4 6/14/4 11/22/4
f 2/4/15 16/29/15 17/31/15
f 21/38/16 2/4/16 12/23/16
f 21/38/12 13/25/12 5/9/12
f 16/29/17 5/10/17 6/12/17
f 7/16/18 9/18/18 3/6/18
f 20/37/4 14/26/4 2/3/4
f 1/2/4 10/20/4 19/36/4
f 13/24/19 9/18/19 7/16/19
f 6/13/20 5/11/20 13/24/20
f 10/20/21 8/17/21 12/23/21
f 19/36/4 10/20/4 14/26/4
f 18/34/22 9/19/22 13/25/22
f 18/34/12 21/38/12 12/23/12
f 19/36/4 20/37/4 11/22/4
f 4/7/4 15/28/4 19/36/4
f 4/8/23 3/6/23 18/35/23
f 20/37/4 17/32/4 6/14/4
f 21/38/24 16/30/24 2/4/24
