# Blender 3.5.1
# www.blender.org
mtllib cubble5.mtl
o cubble5
v 0.100434 0.076275 -1.122011
v 0.198668 0.049579 -1.220245
v -0.305308 0.210540 1.196810
v -0.207074 0.015959 1.295044
v -0.198678 0.210540 -0.977723
v -0.296912 0.015959 -1.075957
v -0.836804 0.243989 0.867503
v -1.000000 0.015959 1.000000
v -1.164497 0.015959 -0.510271
v 1.050104 0.210540 -0.460145
v -1.050104 0.210540 -0.460145
v 1.164497 0.015959 -0.510271
v -1.151251 0.015959 0.502443
v 1.038159 0.210540 0.453086
v -1.103120 0.177091 0.487349
v 1.151251 0.015959 0.502443
v 0.489824 0.064983 0.901240
v 0.521281 0.017935 1.057054
vn 0.1357 0.9835 -0.1192
vn -0.3343 0.2848 0.8984
vn -0.4812 0.4730 -0.7380
vn -0.0000 -1.0000 -0.0000
vn 0.0863 0.9584 0.2720
vn -0.1838 0.8865 -0.4247
vn 0.5276 0.4891 -0.6946
vn -0.8633 0.5046 0.0113
vn 0.1824 0.8792 -0.4401
vn 0.8633 0.5046 0.0113
vn -0.0000 1.0000 -0.0000
vn -0.9131 0.2987 0.2776
vn 0.2160 0.9459 0.2420
vn -0.0000 -1.0000 0.0036
vn -0.0101 0.9546 0.2976
vn 0.1356 0.9552 -0.2631
vn -0.3701 0.6503 0.6634
vn -0.4268 0.5699 -0.7021
vn 0.0020 -1.0000 -0.0023
vn 0.3766 0.5619 0.7365
vn -0.1752 0.5128 -0.8404
vn 0.0275 0.9713 -0.2365
vn 0.0385 -0.9943 -0.0995
vn -0.9584 0.2822 -0.0437
vn -0.0151 0.9993 0.0344
vn -0.6581 0.6703 0.3430
vn 0.4815 0.4679 0.7411
vt 0.625000 0.500000
vt 0.375000 0.500000
vt 0.625000 0.750000
vt 0.375000 0.750000
vt 0.625000 0.250000
vt 0.875000 0.500000
vt 0.375000 0.250000
vt 0.125000 0.500000
vt 0.875000 0.750000
vt 0.625000 1.000000
vt 0.625000 0.000000
vt 0.125000 0.750000
vt 0.375000 1.000000
vt 0.375000 0.000000
vt 0.375000 0.188784
vt 0.125000 0.561216
vt 0.625000 0.561216
vt 0.625000 0.188784
vt 0.875000 0.561216
vt 0.375000 0.561216
vt 0.375000 0.031097
vt 0.125000 0.718903
vt 0.375000 0.062195
vt 0.125000 0.687805
vt 0.625000 0.687805
vt 0.875000 0.718903
vt 0.625000 0.062195
vt 0.875000 0.687805
vt 0.625000 0.031097
vt 0.375000 0.687805
vt 0.625000 0.718903
vt 0.375000 0.718903
s 0
usemtl Material
f 17/31/1 7/9/1 3/3/1
f 3/3/2 8/13/2 4/4/2
f 11/18/3 6/7/3 9/15/3
f 13/22/4 4/4/4 8/12/4
f 17/31/5 4/4/5 18/32/5
f 6/7/6 1/1/6 2/2/6
f 2/2/7 10/17/7 12/20/7
f 6/8/4 12/20/4 9/16/4
f 13/23/8 11/18/8 9/15/8
f 5/6/9 10/17/9 1/1/9
f 10/17/10 16/30/10 12/20/10
f 12/20/4 13/24/4 9/16/4
f 11/19/11 14/25/11 10/17/11
f 8/14/12 15/29/12 13/21/12
f 16/30/13 17/31/13 18/32/13
f 13/24/14 16/30/14 18/32/14
f 14/25/15 15/26/15 17/31/15
f 17/31/16 15/26/16 7/9/16
f 3/3/17 7/10/17 8/13/17
f 11/18/18 5/5/18 6/7/18
f 13/22/19 18/32/19 4/4/19
f 17/31/20 3/3/20 4/4/20
f 6/7/21 5/5/21 1/1/21
f 2/2/22 1/1/22 10/17/22
f 6/8/23 2/2/23 12/20/23
f 13/23/24 15/27/24 11/18/24
f 5/6/11 11/19/11 10/17/11
f 10/17/10 14/25/10 16/30/10
f 12/20/4 16/30/4 13/24/4
f 11/19/25 15/28/25 14/25/25
f 8/14/26 7/11/26 15/29/26
f 16/30/27 14/25/27 17/31/27
