# Blender 3.5.0
# www.blender.org
mtllib Gravestone3.mtl
o Gravestone3
v -1.622639 0.000000 1.000000
v -1.305323 0.958608 0.871872
v -1.622639 0.000000 -1.000000
v -1.362048 0.940987 -0.778874
v 1.622639 0.000000 1.000000
v 1.368662 0.903324 0.775897
v 1.622639 0.000000 -1.000000
v 1.328552 0.981065 -0.870061
v -0.758828 0.948144 0.467650
v -0.758828 0.948144 -0.467650
v 0.764656 0.990035 -0.458047
v 0.758828 0.916656 0.467650
v -0.676782 1.498610 0.353716
v -0.608729 1.498610 -0.445571
v 0.673341 1.451637 -0.346729
v 0.620173 1.471603 0.464141
v -0.373481 1.499541 0.241994
v -0.254513 1.528746 -0.199266
v 0.378083 1.518225 -0.226115
v 0.448355 1.475435 0.254692
v -0.556986 5.063821 0.568996
v -0.532808 5.035728 -0.087167
v 0.616432 5.035728 -0.087167
v 0.616432 5.011883 0.621086
v 0.517438 4.091340 0.503419
v -0.452466 4.111464 0.500821
v -0.452466 4.111464 -0.094315
v 0.557895 4.119070 -0.114336
v -0.464887 3.319411 0.406048
v 0.491632 3.379670 -0.145219
v 0.494212 3.366401 0.416097
v -0.417621 3.378663 -0.146388
v 1.450779 3.229496 0.333163
v 1.530493 4.138824 0.385326
v -1.439310 3.319237 -0.175779
v -1.502584 4.158266 -0.160478
v -1.505618 4.112137 0.391388
v 1.531497 4.162156 -0.161685
v -1.440628 3.319253 0.336761
v 1.451727 3.251507 -0.182198
v -1.392504 0.841986 0.919499
v -1.438017 0.795422 -0.843126
v 1.401295 0.850484 -0.918813
v 1.447286 0.791551 0.830606
v 0.652902 1.220338 -0.364903
v 0.625052 1.196127 0.422614
v -0.650321 1.222632 0.372578
v -0.619485 1.222632 -0.413409
v -0.424144 2.354275 0.254705
v 0.368692 2.386379 -0.255865
v 0.469873 2.365060 0.267409
v -0.280064 2.391150 -0.244899
vn -0.8884 0.4589 0.0108
vn -0.0316 0.3341 -0.9420
vn 0.8184 0.5746 -0.0022
vn 0.0355 0.3549 0.9342
vn -0.0000 -1.0000 -0.0000
vn 0.0207 0.9998 0.0022
vn 0.9978 0.0078 0.0652
vn -0.0271 0.9979 -0.0588
vn -0.0181 0.9967 0.0789
vn -0.0119 0.9999 -0.0000
vn 0.0484 0.9986 -0.0214
vn -0.9960 0.0289 -0.0848
vn -0.0834 0.0600 0.9947
vn 0.0793 0.0711 -0.9943
vn -0.0476 -0.0765 0.9959
vn -0.1097 0.9933 0.0362
vn 0.0163 0.9985 0.0526
vn 0.0620 0.9302 -0.3618
vn 0.0427 0.9985 0.0336
vn -0.0200 0.0309 -0.9993
vn 0.9943 -0.1065 -0.0036
vn -0.9962 -0.0866 -0.0000
vn -0.0325 0.0446 -0.9985
vn 0.1186 -0.0672 0.9907
vn -0.0201 0.0435 -0.9988
vn -0.0046 -0.1187 0.9929
vn -0.0122 -0.1554 0.9878
vn -0.0160 0.1126 -0.9935
vn 0.9997 -0.0235 -0.0052
vn -0.9535 -0.1046 -0.2827
vn -0.9972 -0.0752 -0.0026
vn 0.9962 -0.0872 -0.0019
vn -0.0421 0.9982 0.0425
vn -0.1436 -0.9894 -0.0227
vn -0.0703 -0.1174 0.9906
vn 0.0581 -0.9983 0.0002
vn 0.0006 1.0000 -0.0000
vn 0.0639 0.0230 -0.9977
vn -0.0000 0.0952 0.9955
vn 0.9763 0.2163 -0.0000
vn -0.0000 0.0950 -0.9955
vn -0.9741 0.2261 -0.0000
vn 0.0358 0.3896 -0.9203
vn -0.0299 0.3377 0.9408
vn -0.8883 0.4579 -0.0349
vn 0.8982 0.4372 0.0452
vn -0.9591 -0.0432 -0.2798
vn 0.9890 -0.0218 -0.1465
vn -0.0430 -0.0347 -0.9985
vn -0.0140 -0.0157 0.9998
vn -0.7966 0.6041 0.0209
vn -0.0370 0.4196 -0.9069
vn 0.8739 0.4862 0.0017
vn 0.0414 0.4626 0.8856
vn 0.9954 -0.0905 0.0324
vn -0.0147 0.9999 0.0055
vn 0.0494 0.9977 0.0459
vn 0.0110 0.9999 -0.0111
vn 0.2396 0.9695 0.0513
vn -0.9944 -0.0980 -0.0390
vn -0.0419 -0.1497 0.9879
vn 0.0376 -0.1171 -0.9924
vn -0.0053 -0.1262 0.9920
vn -0.0032 1.0000 -0.0003
vn 0.0294 0.9996 -0.0058
vn 0.0107 0.9906 -0.1366
vn -0.0000 0.9991 -0.0428
vn -0.0000 0.0077 -1.0000
vn 0.9959 -0.0654 0.0623
vn -0.9938 -0.1068 -0.0320
vn -0.0497 0.0268 -0.9984
vn 0.0685 -0.1215 0.9902
vn 0.0012 0.0709 -0.9975
vn -0.0051 -0.1194 0.9928
vn -0.0032 -0.1468 0.9892
vn 0.0012 0.0994 -0.9950
vn 0.9762 -0.0993 -0.1928
vn -0.9957 -0.0282 -0.0882
vn -0.9967 -0.0808 -0.0122
vn -0.0419 0.9982 0.0421
vn -0.1338 -0.9901 -0.0425
vn -0.1031 -0.0768 0.9917
vn 0.0077 -0.9943 -0.1060
vn 0.0391 0.9957 0.0834
vn 0.0245 0.0720 -0.9971
vn 0.0344 0.2164 0.9757
vn 0.9672 0.2533 -0.0169
vn -0.0300 0.2001 -0.9793
vn -0.9640 0.2652 0.0179
vn 0.0009 0.1934 -0.9811
vn 0.0033 0.1606 0.9870
vn -0.9300 0.3676 -0.0000
vn 0.9051 0.4233 0.0393
vn -0.9633 -0.0532 -0.2632
vn 0.9818 0.0041 -0.1897
vn -0.0173 -0.0533 -0.9984
vn -0.0159 -0.0139 0.9998
vt 0.375000 1.000000
vt 0.125000 0.750000
vt 0.375000 0.000000
vt 0.625000 1.000000
vt 0.625000 0.000000
vt 0.125000 0.500000
vt 0.375000 0.250000
vt 0.625000 0.250000
vt 0.375000 0.750000
vt 0.625000 0.750000
vt 0.375000 0.500000
vt 0.625000 0.500000
vt 0.625000 1.000000
vt 0.625000 0.000000
vt 0.625000 0.250000
vt 0.625000 0.500000
vt 0.625000 0.750000
vt 0.625000 1.000000
vt 0.625000 0.000000
vt 0.625000 0.250000
vt 0.625000 0.500000
vt 0.625000 0.750000
vt 0.625000 0.000000
vt 0.625000 1.000000
vt 0.625000 0.250000
vt 0.625000 0.500000
vt 0.625000 0.750000
vt 0.625000 1.000000
vt 0.875000 0.750000
vt 0.625000 0.000000
vt 0.875000 0.500000
vt 0.625000 0.250000
vt 0.625000 0.500000
vt 0.625000 0.750000
vt 0.625000 0.750000
vt 0.625000 0.000000
vt 0.625000 1.000000
vt 0.625000 0.250000
vt 0.625000 0.500000
vt 0.625000 1.000000
vt 0.625000 0.000000
vt 0.625000 0.500000
vt 0.625000 0.750000
vt 0.625000 0.250000
vt 0.625000 0.750000
vt 0.625000 0.750000
vt 0.625000 0.250000
vt 0.625000 0.250000
vt 0.625000 1.000000
vt 0.625000 0.000000
vt 0.625000 0.500000
vt 0.625000 1.000000
vt 0.625000 0.000000
vt 0.625000 0.500000
vt 0.595515 1.000000
vt 0.595515 0.000000
vt 0.595515 0.250000
vt 0.595515 0.500000
vt 0.595515 0.750000
vt 0.625000 0.500000
vt 0.625000 0.750000
vt 0.625000 1.000000
vt 0.625000 0.000000
vt 0.625000 0.250000
vt 0.625000 1.000000
vt 0.625000 0.000000
vt 0.625000 0.500000
vt 0.625000 0.750000
vt 0.625000 0.250000
s 0
usemtl Material.004
f 41/56/1 4/8/1 42/57/1
f 42/57/2 8/12/2 43/58/2
f 43/58/3 6/10/3 44/59/3
f 44/59/4 2/4/4 41/55/4
f 7/11/5 1/2/5 3/6/5
f 2/4/6 12/17/6 9/13/6
f 46/61/7 15/21/7 16/22/7
f 8/12/8 10/15/8 11/16/8
f 6/10/9 11/16/9 12/17/9
f 4/8/10 9/14/10 10/15/10
f 15/21/11 20/27/11 16/22/11
f 48/64/12 13/19/12 14/20/12
f 47/62/13 16/22/13 13/18/13
f 45/60/14 14/20/14 15/21/14
f 26/37/15 24/34/15 21/28/15
f 14/20/16 17/23/16 18/25/16
f 16/22/17 17/24/17 13/18/17
f 14/20/18 19/26/18 15/21/18
f 23/33/19 21/29/19 24/34/19
f 27/38/20 23/33/20 28/39/20
f 25/35/21 23/33/21 24/34/21
f 26/36/22 22/32/22 27/38/22
f 28/39/23 40/54/23 30/42/23
f 25/35/24 33/45/24 34/46/24
f 30/42/25 27/38/25 28/39/25
f 31/43/26 26/37/26 29/40/26
f 51/68/27 29/40/27 49/65/27
f 52/69/28 30/42/28 50/67/28
f 51/68/29 30/42/29 31/43/29
f 49/66/30 32/44/30 52/69/30
f 39/53/31 36/48/31 35/47/31
f 40/54/32 34/46/32 33/45/32
f 28/39/33 34/46/33 38/51/33
f 30/42/34 33/45/34 31/43/34
f 26/37/35 39/52/35 29/40/35
f 32/44/36 39/53/36 35/47/36
f 27/38/37 37/50/37 26/36/37
f 27/38/38 35/47/38 36/48/38
f 5/9/39 41/55/39 1/1/39
f 7/11/40 44/59/40 5/9/40
f 3/7/41 43/58/41 7/11/41
f 1/3/42 42/57/42 3/7/42
f 11/16/43 48/64/43 45/60/43
f 9/13/44 46/61/44 47/62/44
f 10/15/45 47/63/45 48/64/45
f 12/17/46 45/60/46 46/61/46
f 18/25/47 49/66/47 52/69/47
f 19/26/48 51/68/48 20/27/48
f 18/25/49 50/67/49 19/26/49
f 17/24/50 51/68/50 49/65/50
f 41/56/51 2/5/51 4/8/51
f 42/57/52 4/8/52 8/12/52
f 43/58/53 8/12/53 6/10/53
f 44/59/54 6/10/54 2/4/54
f 7/11/5 5/9/5 1/2/5
f 2/4/6 6/10/6 12/17/6
f 46/61/55 45/60/55 15/21/55
f 8/12/56 4/8/56 10/15/56
f 6/10/57 8/12/57 11/16/57
f 4/8/58 2/5/58 9/14/58
f 15/21/59 19/26/59 20/27/59
f 48/64/60 47/63/60 13/19/60
f 47/62/61 46/61/61 16/22/61
f 45/60/62 48/64/62 14/20/62
f 26/37/63 25/35/63 24/34/63
f 14/20/64 13/19/64 17/23/64
f 16/22/65 20/27/65 17/24/65
f 14/20/66 18/25/66 19/26/66
f 23/33/67 22/31/67 21/29/67
f 27/38/68 22/32/68 23/33/68
f 25/35/69 28/39/69 23/33/69
f 26/36/70 21/30/70 22/32/70
f 28/39/71 38/51/71 40/54/71
f 25/35/72 31/43/72 33/45/72
f 30/42/73 32/44/73 27/38/73
f 31/43/74 25/35/74 26/37/74
f 51/68/75 31/43/75 29/40/75
f 52/69/76 32/44/76 30/42/76
f 51/68/77 50/67/77 30/42/77
f 49/66/78 29/41/78 32/44/78
f 39/53/79 37/50/79 36/48/79
f 40/54/32 38/51/32 34/46/32
f 28/39/80 25/35/80 34/46/80
f 30/42/81 40/54/81 33/45/81
f 26/37/82 37/49/82 39/52/82
f 32/44/83 29/41/83 39/53/83
f 27/38/84 36/48/84 37/50/84
f 27/38/85 32/44/85 35/47/85
f 5/9/86 44/59/86 41/55/86
f 7/11/87 43/58/87 44/59/87
f 3/7/88 42/57/88 43/58/88
f 1/3/89 41/56/89 42/57/89
f 11/16/90 10/15/90 48/64/90
f 9/13/91 12/17/91 46/61/91
f 10/15/92 9/14/92 47/63/92
f 12/17/93 11/16/93 45/60/93
f 18/25/94 17/23/94 49/66/94
f 19/26/95 50/67/95 51/68/95
f 18/25/96 52/69/96 50/67/96
f 17/24/97 20/27/97 51/68/97
