# Blender 3.5.1
# www.blender.org
mtllib LudumDare_Wall_LShapeLeft_Des01_V01.mtl
o Cube
v -0.416128 0.032693 3.999095
v -0.416128 2.032693 3.999095
v -0.416128 0.032693 -3.999095
v -0.416128 2.032693 -3.999095
v 0.675674 0.032693 3.999095
v 0.675674 2.032693 3.999095
v 0.675674 0.032693 -3.999095
v 0.675674 2.032693 -3.999095
v -0.416128 1.708693 3.999095
v -0.416128 1.708693 -3.999095
v 0.675674 1.708693 -3.999095
v 0.675674 1.708693 3.999095
v -0.416128 0.138147 -3.999095
v 0.675674 0.138147 -3.999095
v 0.675674 0.138147 4.058125
v -0.416128 0.138147 4.058125
v -0.416128 1.110203 3.999095
v -0.416128 1.110203 -3.999095
v 0.675674 1.110203 -3.999095
v 0.675674 1.110203 3.999095
v -0.416128 0.845574 -3.999095
v 0.675674 0.845574 -3.999095
v 0.675674 0.845574 3.999095
v -0.416128 0.845574 3.999095
v -0.431209 -0.001755 -3.992206
v -0.431209 -0.001755 3.999572
v -0.431209 1.808083 4.058602
v -0.431209 1.990762 4.058602
v -0.431209 1.990762 -3.992206
v -0.431209 0.043877 -3.992206
v 0.690755 -0.001755 -3.992206
v 0.690755 1.990762 -3.992206
v 0.690755 0.043877 -3.992206
v 0.690755 -0.001755 3.999572
v 0.690755 1.990762 4.058602
v 0.690755 0.043877 4.058602
v -0.431209 1.808083 -3.992206
v 0.690755 1.808083 -3.992206
v 0.690755 1.808083 4.058602
v -0.431209 0.043877 4.058602
v -0.431209 0.921119 4.058602
v -0.431209 1.042787 4.058602
v -0.431209 1.042787 -3.992206
v 0.690755 1.042787 -3.992206
v 0.690755 1.042787 4.058602
v -0.431209 0.921119 -3.992206
v 0.690755 0.921119 -3.992206
v 0.690755 0.921119 4.058602
v -0.416128 0.032693 2.802825
v -0.416128 2.032693 2.802825
v 0.675674 0.032693 2.802825
v 0.675674 2.032693 2.802825
v 0.675674 1.708693 2.802825
v -0.416128 1.708693 2.802825
v -0.416128 0.138147 2.802825
v 0.675674 0.138147 2.802825
v -0.416128 1.110203 2.802825
v 0.675674 1.110203 2.802825
v 0.675674 0.845574 2.802825
v -0.416128 0.845574 2.802825
v -0.431209 -0.001755 2.782174
v -0.431209 1.990762 2.782173
v 0.690755 -0.001755 2.782173
v 0.690755 1.990762 2.782174
v 0.690755 1.808083 2.782174
v -0.431209 1.808083 2.782173
v -0.431209 0.043877 2.782173
v 0.690755 0.043877 2.782174
v -0.431209 1.042787 2.782173
v 0.690755 1.042787 2.782174
v 0.690755 0.921119 2.782174
v -0.431209 0.921119 2.782173
v 3.188767 2.126728 2.802825
v 3.188767 2.126728 3.999095
v 3.188767 1.802728 3.999095
v 3.192889 1.902117 4.058602
v 3.192889 2.084797 4.058602
v 3.188767 1.802728 2.802825
v 3.188767 0.939609 3.999095
v 3.177808 0.232182 4.058125
v 3.177808 0.232182 2.802825
v 3.188767 1.204238 3.999095
v 3.188767 1.204238 2.802825
v 3.188767 0.939609 2.802825
v 3.192889 2.084797 2.782174
v 3.175092 0.137912 4.058602
v 3.186051 0.092280 3.999572
v 3.192889 1.902117 2.782174
v 3.175092 0.137912 2.782174
v 3.192889 1.136822 2.782174
v 3.192889 1.136822 4.058602
v 3.192889 1.015154 4.058602
v 3.192889 1.015154 2.782174
v 3.186051 0.092280 2.782173
vn -0.0000 -0.6188 0.7856
vn -0.0000 -0.0729 -0.9973
vn -0.0000 -0.0139 -0.9999
vn -0.9759 0.2183 -0.0000
vn -0.0000 -1.0000 -0.0000
vn -0.0000 1.0000 -0.0000
vn -0.0000 -0.0000 1.0000
vn -0.0031 0.0832 0.9965
vn -0.0000 -0.0000 -1.0000
vn -1.0000 -0.0000 -0.0000
vn 0.9887 -0.1500 -0.0000
vn -0.9410 0.3384 -0.0000
vn -0.9874 0.1580 -0.0000
vn -0.0000 -0.5137 0.8580
vn 0.0099 -0.2655 -0.9641
vn 0.9161 -0.4010 -0.0000
vn -0.9161 -0.4010 -0.0000
vn -0.9806 -0.1958 -0.0000
vn -0.0000 0.0832 0.9965
vn -0.0304 0.8134 0.5809
vn -0.0000 -0.7912 0.6116
vn -0.0166 0.4405 -0.8976
vn -0.0000 0.0691 -0.9976
vn -0.0000 -0.1016 -0.9948
vn -0.0000 0.8175 0.5760
vn -0.0110 0.2923 -0.9563
vn 0.9806 -0.1958 -0.0000
vn -0.0000 0.1961 0.9806
vn -0.9887 -0.1500 -0.0000
vn 0.0233 -0.6194 0.7847
vn -0.0000 0.0051 1.0000
vn -0.0000 0.0908 -0.9959
vn -0.0000 -0.1621 -0.9868
vn -0.0000 0.6618 0.7497
vn 0.9759 0.2183 -0.0000
vn 0.9874 0.1580 -0.0000
vn 1.0000 -0.0000 -0.0000
vn 0.9410 0.3384 -0.0000
vn 0.9952 0.0978 -0.0000
vn 0.9999 -0.0155 -0.0000
vn 0.9724 0.2335 -0.0000
vn 0.9996 -0.0288 -0.0000
vn 0.9981 0.0610 -0.0000
vn 0.9985 -0.0545 -0.0000
vn 0.9991 -0.0414 -0.0000
vn -0.0002 0.0050 1.0000
vn -0.0081 0.2142 -0.9768
vn -0.0374 0.9993 -0.0000
vn 0.0077 -0.2045 -0.9788
vn 0.0299 -0.7908 0.6113
vn 0.0193 -0.5142 0.8575
vn -0.0246 0.6585 0.7522
vn 0.0377 -0.9993 -0.0000
vn -0.0000 -0.0138 -0.9999
vn 0.0099 -0.2642 -0.9644
vn -0.0307 0.8161 0.5771
vn -0.0164 0.4370 -0.8993
vn -0.0000 -0.1017 -0.9948
vn -0.0000 0.8174 0.5760
vn -0.0109 0.2907 -0.9568
vn 0.0233 -0.6215 0.7831
vn -0.0000 0.0050 1.0000
vn -0.9161 -0.4011 -0.0000
vn -0.0002 0.0051 1.0000
vn -0.0080 0.2128 -0.9771
vn 0.0077 -0.2037 -0.9790
vn 0.0297 -0.7881 0.6148
vn 0.0193 -0.5157 0.8565
vn -0.0248 0.6607 0.7502
vt 0.125000 0.750000
vt 0.875000 0.750000
vt 0.125000 0.500000
vt 0.875000 0.500000
vt 0.375000 0.750000
vt 0.625000 0.750000
vt 0.375000 0.500000
vt 0.625000 0.500000
vt 0.584500 1.000000
vt 0.584500 0.000000
vt 0.584500 0.250000
vt 0.584500 0.500000
vt 0.584500 0.750000
vt 0.388182 0.250000
vt 0.388182 0.500000
vt 0.388182 0.750000
vt 0.388182 0.000000
vt 0.388182 1.000000
vt 0.509689 1.000000
vt 0.509689 0.000000
vt 0.509689 0.250000
vt 0.509689 0.500000
vt 0.509689 0.750000
vt 0.476610 0.250000
vt 0.476610 0.500000
vt 0.476610 0.750000
vt 0.476610 1.000000
vt 0.476610 0.000000
vt 0.375000 0.250000
vt 0.125000 0.500000
vt 0.125000 0.750000
vt 0.375000 1.000000
vt 0.375000 0.000000
vt 0.584500 1.000000
vt 0.584500 0.000000
vt 0.625000 1.000000
vt 0.875000 0.750000
vt 0.625000 0.000000
vt 0.625000 0.250000
vt 0.875000 0.500000
vt 0.388182 0.250000
vt 0.375000 0.500000
vt 0.625000 0.500000
vt 0.388182 0.500000
vt 0.375000 0.750000
vt 0.625000 0.750000
vt 0.388182 0.750000
vt 0.584500 0.250000
vt 0.584500 0.500000
vt 0.584500 0.750000
vt 0.388182 1.000000
vt 0.388182 0.000000
vt 0.476610 0.000000
vt 0.476610 1.000000
vt 0.509689 1.000000
vt 0.509689 0.000000
vt 0.509689 0.250000
vt 0.509689 0.500000
vt 0.509689 0.750000
vt 0.476610 0.250000
vt 0.476610 0.500000
vt 0.476610 0.750000
vt 0.125000 0.702396
vt 0.875000 0.702396
vt 0.375000 0.702396
vt 0.625000 0.702396
vt 0.584500 0.702396
vt 0.584500 0.047604
vt 0.388182 0.047604
vt 0.388182 0.702396
vt 0.509689 0.047604
vt 0.509689 0.702396
vt 0.476610 0.702396
vt 0.476610 0.047604
vt 0.375000 0.047604
vt 0.125000 0.702396
vt 0.625000 0.047604
vt 0.875000 0.702396
vt 0.375000 0.702396
vt 0.625000 0.702396
vt 0.584500 0.702396
vt 0.584500 0.047604
vt 0.388182 0.047604
vt 0.388182 0.702396
vt 0.509689 0.047604
vt 0.509689 0.702396
vt 0.476610 0.702396
vt 0.476610 0.047604
vt 0.625000 0.702396
vt 0.625000 0.750000
vt 0.584500 0.750000
vt 0.584500 0.750000
vt 0.625000 0.750000
vt 0.584500 0.702396
vt 0.476610 0.750000
vt 0.388182 0.750000
vt 0.388182 0.702396
vt 0.509689 0.750000
vt 0.509689 0.702396
vt 0.476610 0.702396
vt 0.625000 0.702396
vt 0.388182 0.750000
vt 0.375000 0.750000
vt 0.584500 0.702396
vt 0.388182 0.702396
vt 0.509689 0.702396
vt 0.509689 0.750000
vt 0.476610 0.750000
vt 0.476610 0.702396
vt 0.375000 0.702396
s 0
f 23/26/1 41/54/1 24/27/1
f 14/15/2 30/41/2 13/14/2
f 5/5/3 26/31/3 1/1/3
f 18/21/4 69/85/4 57/71/4
f 51/65/5 1/1/5 49/63/5
f 50/64/6 6/6/6 52/66/6
f 12/13/7 17/19/7 20/23/7
f 23/26/8 80/96/8 79/95/8
f 10/11/9 19/22/9 18/21/9
f 54/68/10 18/21/10 57/71/10
f 11/12/11 65/81/11 53/67/11
f 4/4/12 62/78/12 50/64/12
f 13/14/13 67/83/13 55/69/13
f 12/13/14 27/34/14 9/9/14
f 71/87/15 84/100/15 59/73/15
f 49/63/16 26/31/16 61/76/16
f 7/7/17 63/79/17 51/65/17
f 24/28/18 72/88/18 60/74/18
f 23/26/19 16/18/19 15/16/19
f 35/46/20 74/90/20 6/6/20
f 21/24/9 14/15/9 13/14/9
f 60/74/10 13/14/10 55/69/10
f 62/77/10 37/48/10 66/82/10
f 29/39/9 38/49/9 37/48/9
f 35/46/7 76/92/7 77/93/7
f 35/46/7 27/34/7 39/50/7
f 67/83/10 25/29/10 61/75/10
f 30/41/9 31/42/9 25/29/9
f 64/80/9 88/104/9 65/81/9
f 36/47/21 26/32/21 34/45/21
f 69/85/10 46/60/10 72/88/10
f 43/57/9 47/61/9 46/60/9
f 64/80/22 73/89/22 85/101/22
f 45/59/7 41/54/7 48/62/7
f 10/11/23 38/49/23 11/12/23
f 19/22/24 43/57/24 18/21/24
f 2/2/25 35/46/25 6/6/25
f 70/86/26 83/99/26 90/106/26
f 22/25/27 71/87/27 59/73/27
f 3/3/28 31/42/28 7/7/28
f 9/10/29 66/82/29 54/68/29
f 48/62/30 79/95/30 92/108/30
f 16/18/31 36/47/31 15/16/31
f 21/24/32 47/61/32 22/25/32
f 8/8/33 29/40/33 4/4/33
f 17/19/34 45/59/34 20/23/34
f 19/22/35 70/86/35 44/58/35
f 10/11/29 66/82/29 37/48/29
f 63/79/9 89/105/9 94/110/9
f 14/15/36 68/84/36 33/44/36
f 44/58/37 71/87/37 47/61/37
f 42/56/10 72/88/10 41/53/10
f 33/44/37 63/79/37 31/42/37
f 26/33/10 67/83/10 61/75/10
f 32/43/37 65/81/37 38/49/37
f 28/38/10 66/82/10 27/35/10
f 24/28/10 55/69/10 16/17/10
f 22/25/37 56/70/37 14/15/37
f 21/24/18 72/88/18 46/60/18
f 51/65/17 34/45/17 5/5/17
f 3/3/16 61/76/16 25/30/16
f 8/8/38 64/80/38 32/43/38
f 55/69/13 40/52/13 16/17/13
f 2/2/12 62/78/12 28/37/12
f 53/67/9 83/99/9 58/72/9
f 9/10/10 57/71/10 17/20/10
f 11/12/37 58/72/37 19/22/37
f 4/4/6 52/66/6 8/8/6
f 7/7/5 49/63/5 3/3/5
f 17/20/4 69/85/4 42/56/4
f 78/94/37 82/98/37 83/99/37
f 74/90/39 85/101/39 73/89/39
f 81/97/40 79/95/40 80/96/40
f 85/101/37 76/92/37 88/104/37
f 89/105/41 87/103/41 94/110/41
f 90/106/37 92/108/37 93/109/37
f 81/97/42 86/102/42 89/105/42
f 82/98/43 90/106/43 83/99/43
f 79/95/44 93/109/44 92/108/44
f 75/91/45 88/104/45 76/92/45
f 36/47/46 80/96/46 15/16/46
f 68/84/47 81/97/47 89/105/47
f 6/6/48 73/89/48 52/66/48
f 65/81/49 78/94/49 53/67/49
f 45/59/7 92/108/7 91/107/7
f 59/73/9 81/97/9 56/70/9
f 34/45/50 86/102/50 36/47/50
f 12/13/7 82/98/7 75/91/7
f 70/86/9 93/109/9 71/87/9
f 39/50/51 75/91/51 76/92/51
f 45/59/52 82/98/52 20/23/52
f 63/79/53 87/103/53 34/45/53
f 23/26/1 48/62/1 41/54/1
f 14/15/2 33/44/2 30/41/2
f 5/5/54 34/45/54 26/31/54
f 18/21/4 43/57/4 69/85/4
f 51/65/5 5/5/5 1/1/5
f 50/64/6 2/2/6 6/6/6
f 12/13/7 9/9/7 17/19/7
f 23/26/8 15/16/8 80/96/8
f 10/11/9 11/12/9 19/22/9
f 54/68/10 10/11/10 18/21/10
f 11/12/11 38/49/11 65/81/11
f 4/4/12 29/40/12 62/78/12
f 13/14/13 30/41/13 67/83/13
f 12/13/14 39/50/14 27/34/14
f 71/87/55 93/109/55 84/100/55
f 49/63/16 1/1/16 26/31/16
f 7/7/17 31/42/17 63/79/17
f 24/28/18 41/53/18 72/88/18
f 23/26/19 24/27/19 16/18/19
f 35/46/56 77/93/56 74/90/56
f 21/24/9 22/25/9 14/15/9
f 60/74/10 21/24/10 13/14/10
f 62/77/10 29/39/10 37/48/10
f 29/39/9 32/43/9 38/49/9
f 35/46/7 39/50/7 76/92/7
f 35/46/7 28/36/7 27/34/7
f 67/83/10 30/41/10 25/29/10
f 30/41/9 33/44/9 31/42/9
f 64/80/9 85/101/9 88/104/9
f 36/47/21 40/51/21 26/32/21
f 69/85/10 43/57/10 46/60/10
f 43/57/9 44/58/9 47/61/9
f 64/80/57 52/66/57 73/89/57
f 45/59/7 42/55/7 41/54/7
f 10/11/23 37/48/23 38/49/23
f 19/22/58 44/58/58 43/57/58
f 2/2/59 28/37/59 35/46/59
f 70/86/60 58/72/60 83/99/60
f 22/25/27 47/61/27 71/87/27
f 3/3/28 25/30/28 31/42/28
f 9/10/29 27/35/29 66/82/29
f 48/62/61 23/26/61 79/95/61
f 16/18/62 40/51/62 36/47/62
f 21/24/32 46/60/32 47/61/32
f 8/8/33 32/43/33 29/40/33
f 17/19/34 42/55/34 45/59/34
f 19/22/35 58/72/35 70/86/35
f 10/11/29 54/68/29 66/82/29
f 63/79/9 68/84/9 89/105/9
f 14/15/36 56/70/36 68/84/36
f 44/58/37 70/86/37 71/87/37
f 42/56/10 69/85/10 72/88/10
f 33/44/37 68/84/37 63/79/37
f 26/33/10 40/52/10 67/83/10
f 32/43/37 64/80/37 65/81/37
f 28/38/10 62/77/10 66/82/10
f 24/28/10 60/74/10 55/69/10
f 22/25/37 59/73/37 56/70/37
f 21/24/18 60/74/18 72/88/18
f 51/65/63 63/79/63 34/45/63
f 3/3/16 49/63/16 61/76/16
f 8/8/38 52/66/38 64/80/38
f 55/69/13 67/83/13 40/52/13
f 2/2/12 50/64/12 62/78/12
f 53/67/9 78/94/9 83/99/9
f 9/10/10 54/68/10 57/71/10
f 11/12/37 53/67/37 58/72/37
f 4/4/6 50/64/6 52/66/6
f 7/7/5 51/65/5 49/63/5
f 17/20/4 57/71/4 69/85/4
f 78/94/37 75/91/37 82/98/37
f 74/90/39 77/93/39 85/101/39
f 81/97/40 84/100/40 79/95/40
f 85/101/37 77/93/37 76/92/37
f 89/105/41 86/102/41 87/103/41
f 90/106/37 91/107/37 92/108/37
f 81/97/42 80/96/42 86/102/42
f 82/98/43 91/107/43 90/106/43
f 79/95/44 84/100/44 93/109/44
f 75/91/45 78/94/45 88/104/45
f 36/47/64 86/102/64 80/96/64
f 68/84/65 56/70/65 81/97/65
f 6/6/48 74/90/48 73/89/48
f 65/81/66 88/104/66 78/94/66
f 45/59/7 48/62/7 92/108/7
f 59/73/9 84/100/9 81/97/9
f 34/45/67 87/103/67 86/102/67
f 12/13/7 20/23/7 82/98/7
f 70/86/9 90/106/9 93/109/9
f 39/50/68 12/13/68 75/91/68
f 45/59/69 91/107/69 82/98/69
f 63/79/53 94/110/53 87/103/53
