# Blender 3.5.1
# www.blender.org
mtllib LudumDare_FirePlate_Des01_V01.mtl
o Cube
v -0.784267 0.561797 0.784267
v -0.639347 0.430615 0.639309
v -0.784267 0.561797 -0.784267
v -0.639347 0.430615 -0.639385
v 0.784267 0.561797 0.784267
v 0.639347 0.430615 0.639309
v 0.784267 0.561797 -0.784267
v 0.639347 0.430615 -0.639385
v 0.000000 0.556372 -1.149134
v 0.000000 0.435038 -0.936830
v 0.000000 0.556372 1.149134
v 0.000000 0.435038 0.936754
v 0.419466 0.435594 -0.838970
v 0.514546 0.555690 1.029092
v 0.514546 0.555690 -1.029092
v 0.419466 0.435594 0.838894
v -0.514546 0.555690 -1.029092
v -0.419466 0.435594 0.838894
v -0.419466 0.435594 -0.838970
v -0.514546 0.555690 1.029092
v -1.149134 0.556372 -0.000000
v -0.936792 0.435038 -0.000038
v 1.149134 0.556372 -0.000000
v 0.936792 0.435038 -0.000038
v 0.000000 0.225632 0.380057
v 0.000000 0.541474 0.000000
v 0.514160 0.436223 -0.000000
v 0.514160 0.555645 -0.000000
v -0.514160 0.555645 -0.000000
v -0.514160 0.436223 -0.000000
v -1.029092 0.555690 0.514546
v 0.838932 0.435594 0.419428
v 0.000000 0.436223 0.514160
v 0.000000 0.555645 0.514160
v 0.514160 0.436223 0.514160
v 0.514160 0.555645 0.514160
v -0.514160 0.555645 0.514160
v -0.514160 0.436223 0.514160
v -0.838932 0.435594 0.419428
v 1.029092 0.555690 0.514546
v -0.838932 0.435594 -0.419504
v 1.029092 0.555690 -0.514546
v -1.029092 0.555690 -0.514546
v 0.838932 0.435594 -0.419504
v 0.000000 0.436223 -0.514160
v 0.000000 0.555645 -0.514160
v 0.514160 0.436223 -0.514160
v 0.514160 0.555645 -0.514160
v -0.514160 0.555645 -0.514160
v -0.514160 0.436223 -0.514160
v 0.000000 -0.015927 -0.380479
v 0.000000 0.029212 0.000000
v 0.380480 -0.015927 -0.380479
v 0.380480 -0.015927 0.000000
v -0.380480 -0.015927 -0.380479
v -0.380480 -0.015927 0.000000
v 0.000000 -0.015927 0.380480
v 0.380480 -0.015927 0.380480
v -0.380480 -0.015927 0.380480
v 0.380057 0.225632 0.380057
v 0.000000 0.225632 -0.380057
v -0.380057 0.225632 -0.380057
v 0.380057 0.225632 -0.380057
v 0.380057 0.225632 -0.000000
v -0.380057 0.225632 0.380057
v -0.380057 0.225632 -0.000000
v -1.078038 0.558532 0.538606
v -0.821569 0.564930 0.821156
v -0.669756 0.428062 0.669381
v -0.878834 0.433277 -0.439792
v -0.669756 0.428062 -0.670131
v -0.821569 0.564930 -0.821982
v -0.539019 0.558532 -1.078451
v 0.439417 0.433277 -0.879209
v 0.669756 0.428062 -0.670131
v 0.821569 0.564930 -0.821982
v 1.078038 0.558532 -0.539432
v 0.878834 0.433277 0.439042
v 0.669756 0.428062 0.669381
v 0.821569 0.564930 0.821156
v 0.539019 0.558532 1.077625
v -0.439417 0.433277 0.878459
v 0.539019 0.558532 -1.078451
v 0.000000 0.559247 -1.204202
v -0.439417 0.433277 -0.879209
v 0.000000 0.432695 -0.981723
v -0.539019 0.558532 1.077625
v 0.000000 0.559247 1.203376
v 0.439417 0.433277 0.878459
v 0.000000 0.432695 0.980973
v -1.078038 0.558532 -0.539432
v -1.203789 0.559247 -0.000413
v -0.878834 0.433277 0.439042
v -0.981348 0.432695 -0.000375
v 1.078038 0.558532 0.538606
v 1.203789 0.559247 -0.000413
v 0.878834 0.433277 -0.439792
v 0.981348 0.432695 -0.000375
v -1.120598 0.639555 0.560313
v -0.854004 0.646206 0.854018
v -0.560299 0.639555 -1.120584
v -0.854004 0.646206 -0.853989
v 1.120598 0.639555 -0.560285
v 0.854004 0.646206 -0.853989
v 0.560299 0.639555 1.120613
v 0.854004 0.646206 0.854018
v 0.560299 0.639555 -1.120584
v 0.000000 0.640298 -1.251300
v -0.560299 0.639555 1.120613
v 0.000000 0.640298 1.251328
v -0.586948 0.642650 -1.174332
v -0.586948 0.642650 1.173461
v 0.000000 0.643428 1.310394
v -1.173896 0.642650 0.586513
v -0.894622 0.649617 0.894187
v -1.120598 0.639555 -0.560285
v -1.251314 0.640298 0.000014
v 1.120598 0.639555 0.560313
v 1.251314 0.640298 0.000014
v 0.586948 0.642650 -1.174332
v 0.000000 0.643428 -1.311265
v -0.894622 0.649617 -0.895057
v 1.173896 0.642650 -0.587384
v 0.894622 0.649617 -0.895057
v 0.586948 0.642650 1.173461
v 0.894622 0.649617 0.894187
v -1.173896 0.642650 -0.587384
v -1.310829 0.643428 -0.000435
v 1.173896 0.642650 0.586513
v 1.310829 0.643428 -0.000435
v 0.439362 0.102694 0.439362
v -0.439362 0.102694 -0.439362
v 0.439362 0.102694 -0.439362
v -0.439362 0.102694 0.000000
v 0.000000 0.102694 0.439362
v 0.000000 0.102694 -0.439362
v 0.439362 0.102694 0.000000
v -0.439362 0.102694 0.439362
v 0.436610 0.031852 0.436610
v -0.436610 0.031852 -0.436610
v 0.436610 0.031852 -0.436610
v -0.436610 0.031852 0.000000
v 0.000000 0.031852 0.436610
v 0.000000 0.031852 -0.436610
v 0.436610 0.031852 0.000000
v -0.436610 0.031852 0.436610
v -0.573624 0.663570 -1.147458
v -0.573624 0.663570 1.147037
v 0.000000 0.664330 1.280861
v -1.147247 0.663570 0.573413
v -0.874313 0.670379 0.874102
v 0.573624 0.663570 -1.147458
v 0.000000 0.664330 -1.281282
v -1.281072 0.664330 -0.000211
v -0.874313 0.670379 -0.874523
v 0.874313 0.670379 -0.874523
v 1.147247 0.663570 -0.573834
v 0.573624 0.663570 1.147037
v -1.147247 0.663570 -0.573834
v 1.281072 0.664330 -0.000211
v 0.874313 0.670379 0.874102
v 1.147247 0.663570 0.573413
vn -0.0516 -0.9982 0.0319
vn 0.4607 -0.7732 0.4357
vn 0.1417 -0.7782 -0.6119
vn -0.0526 -0.9986 -0.0109
vn -0.0227 0.9997 -0.0001
vn 0.0332 -0.9994 -0.0116
vn -0.0000 -1.0000 -0.0019
vn -0.0000 1.0000 -0.0001
vn 0.0516 -0.9982 0.0319
vn -0.1417 -0.7782 -0.6119
vn 0.0110 -0.9985 -0.0529
vn -0.0116 -0.9994 -0.0332
vn 0.0011 1.0000 -0.0011
vn 0.0318 -0.9982 0.0515
vn -0.0110 -0.9985 -0.0529
vn 0.0001 0.9997 -0.0227
vn -0.0007 -1.0000 -0.0028
vn 0.4465 0.7596 -0.4729
vn 0.6482 -0.7615 -0.0000
vn -0.0275 0.9992 0.0275
vn -0.0028 -1.0000 -0.0007
vn -0.0000 1.0000 -0.0000
vn 0.0019 -1.0000 -0.0000
vn -0.0001 1.0000 -0.0000
vn 0.4465 0.7596 0.4730
vn 0.4357 -0.7732 0.4607
vn 0.0108 -0.9986 0.0521
vn -0.0000 -0.7615 0.6482
vn 0.0011 1.0000 0.0011
vn -0.0275 0.9992 -0.0275
vn -0.0028 -1.0000 0.0007
vn -0.0000 -0.7615 -0.6482
vn -0.0524 -0.9986 0.0109
vn -0.6120 -0.7781 0.1417
vn -0.0227 0.9997 0.0001
vn 0.0332 -0.9994 0.0116
vn -0.0000 -1.0000 0.0019
vn -0.0000 1.0000 0.0001
vn -0.0116 -0.9994 0.0332
vn 0.0001 0.9997 0.0227
vn -0.0007 -1.0000 0.0028
vn -0.0318 -0.9982 0.0515
vn 0.1170 -0.9862 0.1170
vn -0.0000 -1.0000 -0.0000
vn 0.1170 -0.9862 -0.1170
vn -0.6482 -0.7615 -0.0000
vn -0.8435 -0.5371 -0.0000
vn -0.0000 -0.5371 0.8435
vn -0.0000 -0.5371 -0.8435
vn 0.8435 -0.5371 -0.0000
vn -0.3659 -0.8617 -0.3516
vn 0.3516 -0.8617 -0.3659
vn 0.3660 -0.8616 0.3517
vn -0.3517 -0.8616 0.3660
vn 0.1127 -0.8655 0.4880
vn -0.1127 -0.8656 -0.4879
vn 0.3517 -0.8616 0.3660
vn 0.1127 -0.8656 -0.4879
vn -0.3516 -0.8617 -0.3659
vn -0.1127 -0.8655 0.4880
vn 0.4879 -0.8656 -0.1127
vn -0.4879 -0.8656 0.1127
vn -0.3660 -0.8616 0.3517
vn 0.4879 -0.8656 0.1127
vn 0.3659 -0.8617 -0.3516
vn -0.4879 -0.8656 -0.1127
vn -0.0108 -0.9986 0.0521
vn 0.6279 0.7645 -0.1455
vn 0.1455 0.7645 0.6280
vn -0.0324 -0.9981 -0.0520
vn 0.4607 -0.7733 -0.4357
vn 0.0524 -0.9986 0.0109
vn 0.1455 0.7646 -0.6279
vn -0.0519 -0.9981 -0.0323
vn 0.4357 -0.7733 -0.4607
vn 0.4729 0.7596 -0.4465
vn 0.0526 -0.9986 -0.0109
vn 0.0324 -0.9981 -0.0520
vn 0.1417 -0.7780 0.6120
vn 0.0519 -0.9981 -0.0323
vn 0.6120 -0.7781 0.1417
vn -0.1455 0.7645 0.6280
vn -0.3858 0.8081 0.4452
vn -0.3827 0.8114 -0.4419
vn -0.5703 0.8104 0.1341
vn -0.1333 0.8130 -0.5668
vn -0.1346 0.8088 0.5725
vn -0.4450 0.8083 0.3856
vn 0.1333 0.8130 -0.5668
vn 0.4421 0.8111 -0.3829
vn 0.1346 0.8088 0.5725
vn 0.3827 0.8114 -0.4419
vn -0.5689 0.8114 -0.1338
vn 0.5689 0.8114 -0.1338
vn 0.3858 0.8081 0.4452
vn -0.4421 0.8111 -0.3829
vn 0.5703 0.8104 0.1341
vn 0.4450 0.8083 0.3856
vn -0.4730 0.7596 0.4465
vn -0.4607 -0.7732 0.4357
vn -0.4357 -0.7732 0.4607
vn -0.1455 0.7646 -0.6279
vn -0.1417 -0.7780 0.6120
vn -0.4465 0.7596 0.4730
vn 0.6280 0.7645 0.1455
vn -0.6280 0.7645 0.1455
vn -0.4465 0.7596 -0.4729
vn 0.6119 -0.7781 -0.1417
vn -0.6119 -0.7781 -0.1417
vn 0.4730 0.7596 0.4465
vn -0.4607 -0.7733 -0.4357
vn -0.6279 0.7645 -0.1455
vn -0.4356 -0.7733 -0.4607
vn -0.4729 0.7596 -0.4465
vn -0.9007 0.4345 -0.0000
vn -0.0000 0.4345 0.9007
vn -0.0000 0.4345 -0.9007
vn 0.9007 0.4345 -0.0000
vn -0.9992 -0.0388 -0.0000
vn -0.0000 -0.0388 0.9992
vn -0.0000 -0.0388 -0.9992
vn 0.9992 -0.0388 -0.0000
vn -0.4697 0.7632 -0.4436
vn -0.6224 0.7693 -0.1442
vn 0.4667 0.7667 0.4410
vn -0.4437 0.7631 -0.4698
vn -0.6211 0.7704 0.1439
vn 0.6211 0.7704 0.1439
vn -0.4409 0.7668 0.4666
vn -0.1447 0.7675 -0.6245
vn -0.4667 0.7667 0.4410
vn -0.1434 0.7722 0.6190
vn 0.4697 0.7632 -0.4436
vn 0.1447 0.7675 -0.6245
vn 0.1434 0.7722 0.6190
vn 0.6224 0.7693 -0.1442
vn 0.4409 0.7668 0.4666
vn 0.4437 0.7631 -0.4698
vn -0.0001 0.9997 -0.0227
vn 0.0116 -0.9994 -0.0332
vn 0.0007 -1.0000 -0.0028
vn -0.0011 1.0000 -0.0011
vn -0.0332 -0.9994 -0.0116
vn 0.0227 0.9997 -0.0001
vn 0.0001 1.0000 -0.0000
vn -0.0019 -1.0000 -0.0000
vn 0.0275 0.9992 0.0275
vn 0.0028 -1.0000 -0.0007
vn 0.0275 0.9992 -0.0275
vn 0.0028 -1.0000 0.0007
vn -0.0011 1.0000 0.0011
vn -0.0001 0.9997 0.0227
vn 0.0116 -0.9994 0.0332
vn 0.0007 -1.0000 0.0028
vn -0.0332 -0.9994 0.0116
vn 0.0227 0.9997 0.0001
vn -0.1170 -0.9862 0.1170
vn -0.1170 -0.9862 -0.1170
vn -0.4081 -0.8426 -0.3514
vn 0.3514 -0.8426 -0.4081
vn 0.4082 -0.8425 0.3515
vn -0.3515 -0.8425 0.4082
vn 0.1157 -0.8633 0.4912
vn -0.1157 -0.8634 -0.4911
vn 0.3515 -0.8425 0.4082
vn 0.1157 -0.8634 -0.4911
vn -0.3514 -0.8426 -0.4081
vn -0.1157 -0.8633 0.4912
vn 0.4912 -0.8633 -0.1157
vn -0.4912 -0.8633 0.1157
vn -0.4082 -0.8425 0.3515
vn 0.4912 -0.8633 0.1157
vn 0.4081 -0.8426 -0.3514
vn -0.4912 -0.8633 -0.1157
vn 0.4356 -0.7733 -0.4607
vn -0.4357 -0.7733 -0.4607
vt 0.125000 0.750000
vt 0.875000 0.750000
vt 0.125000 0.500000
vt 0.875000 0.500000
vt 0.375000 0.750000
vt 0.625000 0.750000
vt 0.375000 0.500000
vt 0.625000 0.500000
vt 0.250000 0.500000
vt 0.750000 0.500000
vt 0.250000 0.750000
vt 0.750000 0.750000
vt 0.687500 0.500000
vt 0.312500 0.750000
vt 0.312500 0.500000
vt 0.687500 0.750000
vt 0.187500 0.500000
vt 0.812500 0.750000
vt 0.812500 0.500000
vt 0.187500 0.750000
vt 0.125000 0.625000
vt 0.875000 0.625000
vt 0.375000 0.625000
vt 0.625000 0.625000
vt 0.750000 0.687500
vt 0.250000 0.625000
vt 0.687500 0.625000
vt 0.312500 0.625000
vt 0.187500 0.625000
vt 0.812500 0.625000
vt 0.125000 0.687500
vt 0.625000 0.687500
vt 0.750000 0.687500
vt 0.250000 0.687500
vt 0.687500 0.687500
vt 0.312500 0.687500
vt 0.187500 0.687500
vt 0.812500 0.687500
vt 0.875000 0.687500
vt 0.375000 0.687500
vt 0.875000 0.562500
vt 0.375000 0.562500
vt 0.125000 0.562500
vt 0.625000 0.562500
vt 0.750000 0.562500
vt 0.250000 0.562500
vt 0.687500 0.562500
vt 0.312500 0.562500
vt 0.187500 0.562500
vt 0.812500 0.562500
vt 0.750000 0.562500
vt 0.750000 0.625000
vt 0.687500 0.562500
vt 0.687500 0.625000
vt 0.812500 0.562500
vt 0.812500 0.625000
vt 0.750000 0.687500
vt 0.687500 0.687500
vt 0.812500 0.687500
vt 0.687500 0.687500
vt 0.750000 0.562500
vt 0.812500 0.562500
vt 0.687500 0.562500
vt 0.687500 0.625000
vt 0.812500 0.687500
vt 0.812500 0.625000
vt 0.375000 0.062500
vt 0.375000 0.000000
vt 0.375000 1.000000
vt 0.625000 1.000000
vt 0.625000 0.000000
vt 0.875000 0.750000
vt 0.625000 0.187500
vt 0.875000 0.562500
vt 0.875000 0.500000
vt 0.625000 0.250000
vt 0.375000 0.250000
vt 0.375000 0.312500
vt 0.625000 0.437500
vt 0.687500 0.500000
vt 0.625000 0.500000
vt 0.375000 0.500000
vt 0.375000 0.562500
vt 0.625000 0.687500
vt 0.625000 0.750000
vt 0.375000 0.750000
vt 0.375000 0.812500
vt 0.625000 0.937500
vt 0.812500 0.750000
vt 0.375000 0.437500
vt 0.375000 0.375000
vt 0.812500 0.500000
vt 0.625000 0.312500
vt 0.750000 0.500000
vt 0.625000 0.375000
vt 0.375000 0.937500
vt 0.375000 0.875000
vt 0.625000 0.812500
vt 0.687500 0.750000
vt 0.750000 0.750000
vt 0.625000 0.875000
vt 0.375000 0.187500
vt 0.375000 0.125000
vt 0.625000 0.062500
vt 0.875000 0.687500
vt 0.625000 0.125000
vt 0.875000 0.625000
vt 0.375000 0.687500
vt 0.375000 0.625000
vt 0.625000 0.562500
vt 0.625000 0.625000
vt 0.125000 0.687500
vt 0.125000 0.750000
vt 0.187500 0.500000
vt 0.125000 0.500000
vt 0.375000 0.562500
vt 0.375000 0.500000
vt 0.312500 0.750000
vt 0.375000 0.750000
vt 0.312500 0.500000
vt 0.250000 0.500000
vt 0.187500 0.750000
vt 0.250000 0.750000
vt 0.187500 0.500000
vt 0.375000 0.312500
vt 0.187500 0.750000
vt 0.375000 0.937500
vt 0.375000 0.875000
vt 0.250000 0.750000
vt 0.125000 0.687500
vt 0.375000 0.062500
vt 0.375000 0.000000
vt 0.125000 0.750000
vt 0.375000 1.000000
vt 0.125000 0.562500
vt 0.125000 0.625000
vt 0.375000 0.687500
vt 0.375000 0.625000
vt 0.375000 0.437500
vt 0.312500 0.500000
vt 0.375000 0.375000
vt 0.250000 0.500000
vt 0.125000 0.500000
vt 0.375000 0.250000
vt 0.375000 0.562500
vt 0.375000 0.500000
vt 0.375000 0.812500
vt 0.312500 0.750000
vt 0.375000 0.750000
vt 0.125000 0.562500
vt 0.375000 0.187500
vt 0.375000 0.125000
vt 0.125000 0.625000
vt 0.375000 0.687500
vt 0.375000 0.625000
vt 0.687500 0.687500
vt 0.812500 0.562500
vt 0.687500 0.562500
vt 0.812500 0.625000
vt 0.750000 0.687500
vt 0.750000 0.562500
vt 0.687500 0.625000
vt 0.812500 0.687500
vt 0.687500 0.687500
vt 0.812500 0.562500
vt 0.687500 0.562500
vt 0.812500 0.625000
vt 0.750000 0.687500
vt 0.750000 0.562500
vt 0.687500 0.625000
vt 0.812500 0.687500
vt 0.187500 0.500000
vt 0.187500 0.750000
vt 0.250000 0.750000
vt 0.125000 0.687500
vt 0.125000 0.750000
vt 0.312500 0.500000
vt 0.250000 0.500000
vt 0.125000 0.625000
vt 0.125000 0.500000
vt 0.375000 0.500000
vt 0.375000 0.562500
vt 0.312500 0.750000
vt 0.125000 0.562500
vt 0.375000 0.625000
vt 0.375000 0.750000
vt 0.375000 0.687500
s 0
f 8/8/1 13/13/1 74/80/1
f 80/86/2 95/108/2 129/154/2
f 84/91/3 121/141/3 120/139/3
f 24/24/4 98/111/4 78/84/4
f 36/36/5 14/14/5 5/5/5
f 38/38/6 18/18/6 2/2/6
f 33/33/7 35/35/7 16/16/7
f 34/34/8 37/37/8 20/20/8
f 4/4/9 71/75/9 85/92/9
f 84/91/10 73/78/10 111/125/10
f 12/12/11 90/100/11 82/89/11
f 35/35/12 32/32/12 6/6/12
f 34/34/13 11/11/13 14/14/13
f 4/4/14 41/41/14 70/74/14
f 12/12/15 16/16/15 89/99/15
f 37/37/16 31/31/16 1/1/16
f 33/33/17 12/12/17 18/18/17
f 1/1/18 100/113/18 109/122/18
f 145/170/19 139/164/19 58/58/19
f 43/43/13 21/21/13 29/29/13
f 46/46/20 26/26/20 28/28/20
f 44/44/21 24/24/21 27/27/21
f 46/46/22 49/49/22 29/29/22
f 145/170/19 54/54/19 53/53/19
f 41/41/23 50/50/23 30/30/23
f 42/42/24 48/48/24 28/28/24
f 3/3/25 17/17/25 101/114/25
f 80/86/26 126/149/26 125/147/26
f 10/10/27 19/19/27 85/92/27
f 143/168/28 57/57/28 58/58/28
f 29/29/29 21/21/29 31/31/29
f 28/28/30 26/26/30 34/34/30
f 27/27/31 24/24/31 32/32/31
f 29/29/22 37/37/22 34/34/22
f 144/169/32 51/51/32 55/55/32
f 30/30/23 38/38/23 39/39/23
f 28/28/24 36/36/24 40/40/24
f 24/24/33 44/44/33 97/110/33
f 92/103/34 67/67/34 114/131/34
f 7/7/35 15/15/35 48/48/35
f 4/4/36 19/19/36 50/50/36
f 13/13/37 47/47/37 45/45/37
f 17/17/38 49/49/38 46/46/38
f 8/8/39 44/44/39 47/47/39
f 15/15/29 9/9/29 46/46/29
f 3/3/40 43/43/40 49/49/40
f 19/19/41 10/10/41 45/45/41
f 8/8/42 75/81/42 97/110/42
f 51/51/43 52/52/43 56/56/43
f 51/51/44 53/53/44 54/54/44
f 56/56/45 52/52/45 57/57/45
f 54/54/44 58/58/44 57/57/44
f 144/169/32 141/166/32 53/53/32
f 143/168/28 146/171/28 59/59/28
f 142/167/46 140/165/46 55/55/46
f 142/167/46 56/56/46 59/59/46
f 30/30/47 66/66/47 65/65/47
f 30/30/47 50/50/47 62/62/47
f 33/33/48 38/38/48 65/65/48
f 45/45/49 47/47/49 63/63/49
f 45/45/49 61/61/49 62/62/49
f 33/33/48 25/25/48 60/60/48
f 27/27/50 64/64/50 63/63/50
f 27/27/50 35/35/50 60/60/50
f 70/73/51 91/102/51 72/77/51
f 74/79/52 83/90/52 76/82/52
f 78/84/53 95/108/53 80/86/53
f 82/88/54 87/96/54 68/69/54
f 89/98/55 81/87/55 88/97/55
f 85/93/56 73/78/56 84/91/56
f 80/86/57 81/87/57 89/98/57
f 84/91/58 83/90/58 74/79/58
f 72/77/59 73/78/59 85/93/59
f 88/97/60 87/96/60 82/88/60
f 97/110/61 77/83/61 96/109/61
f 93/104/62 67/67/62 92/103/62
f 68/68/63 67/67/63 93/104/63
f 96/109/64 95/108/64 78/84/64
f 76/82/65 77/83/65 97/110/65
f 92/103/66 91/102/66 70/73/66
f 10/10/67 86/94/67 74/80/67
f 21/21/68 117/136/68 99/112/68
f 9/9/69 108/121/69 101/114/69
f 6/6/70 32/32/70 78/84/70
f 76/82/71 124/146/71 123/145/71
f 22/22/72 94/107/72 70/74/72
f 11/11/73 20/20/73 109/122/73
f 6/6/74 79/85/74 89/99/74
f 76/82/75 83/90/75 120/139/75
f 1/1/76 31/31/76 99/112/76
f 22/22/77 39/39/77 93/105/77
f 2/2/78 69/72/78 93/105/78
f 88/97/79 81/87/79 125/147/79
f 2/2/80 18/18/80 82/89/80
f 96/109/81 130/155/81 129/154/81
f 9/9/82 15/15/82 107/120/82
f 148/173/83 151/176/83 115/133/83
f 147/172/84 111/124/84 122/143/84
f 150/175/85 154/179/85 128/153/85
f 147/172/86 153/178/86 121/142/86
f 148/173/87 112/126/87 113/129/87
f 150/175/88 114/130/88 115/133/88
f 152/177/89 120/140/89 121/142/89
f 157/182/90 123/145/90 124/146/90
f 158/183/91 149/174/91 113/129/91
f 152/177/92 156/181/92 124/146/92
f 159/184/93 127/150/93 128/153/93
f 157/182/94 160/185/94 130/155/94
f 158/183/95 125/148/95 126/149/95
f 159/184/96 155/180/96 122/143/96
f 162/187/97 129/154/97 130/155/97
f 162/187/98 161/186/98 126/149/98
f 7/7/99 42/42/99 103/116/99
f 68/68/100 115/132/100 114/131/100
f 68/69/101 87/96/101 112/127/101
f 11/11/102 110/123/102 105/118/102
f 88/97/103 113/128/103 112/127/103
f 7/7/104 104/117/104 107/120/104
f 21/21/105 43/43/105 116/135/105
f 23/23/106 119/138/106 103/116/106
f 5/5/107 14/14/107 105/118/107
f 96/109/108 77/83/108 123/145/108
f 92/103/109 128/152/109 127/151/109
f 3/3/110 102/115/110 116/135/110
f 72/77/111 91/102/111 127/151/111
f 23/23/112 40/40/112 118/137/112
f 72/77/113 122/144/113 111/125/113
f 5/5/114 106/119/114 118/137/114
f 65/65/115 66/66/115 134/159/115
f 62/62/115 132/157/115 134/159/115
f 65/65/116 138/163/116 135/160/116
f 63/63/117 133/158/117 136/161/117
f 62/62/117 61/61/117 136/161/117
f 60/60/116 25/25/116 135/160/116
f 63/63/118 64/64/118 137/162/118
f 60/60/118 131/156/118 137/162/118
f 134/159/119 142/167/119 146/171/119
f 134/159/119 132/157/119 140/165/119
f 135/160/120 138/163/120 146/171/120
f 136/161/121 133/158/121 141/166/121
f 136/161/121 144/169/121 140/165/121
f 135/160/120 143/168/120 139/164/120
f 137/162/122 145/170/122 141/166/122
f 137/162/122 131/156/122 139/164/122
f 106/119/123 161/186/123 162/187/123
f 119/138/124 118/137/124 162/187/124
f 102/115/125 155/180/125 159/184/125
f 106/119/126 105/118/126 158/183/126
f 119/138/127 160/185/127 157/182/127
f 117/136/128 116/135/128 159/184/128
f 104/117/129 156/181/129 152/177/129
f 110/123/130 149/174/130 158/183/130
f 104/117/131 103/116/131 157/182/131
f 108/121/132 107/120/132 152/177/132
f 100/113/133 99/112/133 150/175/133
f 110/123/134 109/122/134 148/173/134
f 108/121/135 153/178/135 147/172/135
f 117/136/136 154/179/136 150/175/136
f 102/115/137 101/114/137 147/172/137
f 100/113/138 151/176/138 148/173/138
f 8/8/1 74/80/1 75/81/1
f 80/86/2 129/154/2 126/149/2
f 84/91/3 120/139/3 83/90/3
f 24/24/4 78/84/4 32/32/4
f 36/36/139 5/5/139 40/40/139
f 38/38/140 2/2/140 39/39/140
f 33/33/141 16/16/141 12/12/141
f 34/34/142 20/20/142 11/11/142
f 4/4/9 85/92/9 19/19/9
f 84/91/10 111/125/10 121/141/10
f 12/12/11 82/89/11 18/18/11
f 35/35/143 6/6/143 16/16/143
f 34/34/8 14/14/8 36/36/8
f 4/4/14 70/74/14 71/75/14
f 12/12/15 89/99/15 90/100/15
f 37/37/144 1/1/144 20/20/144
f 33/33/7 18/18/7 38/38/7
f 1/1/18 109/122/18 20/20/18
f 145/170/19 58/58/19 54/54/19
f 43/43/145 29/29/145 49/49/145
f 46/46/22 28/28/22 48/48/22
f 44/44/146 27/27/146 47/47/146
f 46/46/147 29/29/147 26/26/147
f 145/170/19 53/53/19 141/166/19
f 41/41/148 30/30/148 22/22/148
f 42/42/142 28/28/142 23/23/142
f 3/3/25 101/114/25 102/115/25
f 80/86/26 125/147/26 81/87/26
f 10/10/27 85/92/27 86/94/27
f 143/168/28 58/58/28 139/164/28
f 29/29/145 31/31/145 37/37/145
f 28/28/22 34/34/22 36/36/22
f 27/27/146 32/32/146 35/35/146
f 29/29/149 34/34/149 26/26/149
f 144/169/32 55/55/32 140/165/32
f 30/30/150 39/39/150 22/22/150
f 28/28/151 40/40/151 23/23/151
f 24/24/33 97/110/33 98/111/33
f 92/103/34 114/131/34 128/152/34
f 7/7/152 48/48/152 42/42/152
f 4/4/153 50/50/153 41/41/153
f 13/13/154 45/45/154 10/10/154
f 17/17/151 46/46/151 9/9/151
f 8/8/155 47/47/155 13/13/155
f 15/15/38 46/46/38 48/48/38
f 3/3/156 49/49/156 17/17/156
f 19/19/37 45/45/37 50/50/37
f 8/8/42 97/110/42 44/44/42
f 51/51/44 56/56/44 55/55/44
f 51/51/157 54/54/157 52/52/157
f 56/56/44 57/57/44 59/59/44
f 54/54/158 57/57/158 52/52/158
f 144/169/32 53/53/32 51/51/32
f 143/168/28 59/59/28 57/57/28
f 142/167/46 55/55/46 56/56/46
f 142/167/46 59/59/46 146/171/46
f 30/30/47 65/65/47 38/38/47
f 30/30/47 62/62/47 66/66/47
f 33/33/48 65/65/48 25/25/48
f 45/45/49 63/63/49 61/61/49
f 45/45/49 62/62/49 50/50/49
f 33/33/48 60/60/48 35/35/48
f 27/27/50 63/63/50 47/47/50
f 27/27/50 60/60/50 64/64/50
f 70/73/159 72/77/159 71/76/159
f 74/79/160 76/82/160 75/81/160
f 78/84/161 80/86/161 79/85/161
f 82/88/162 68/69/162 69/70/162
f 89/98/163 88/97/163 90/101/163
f 85/93/164 84/91/164 86/95/164
f 80/86/165 89/98/165 79/85/165
f 84/91/166 74/79/166 86/95/166
f 72/77/167 85/93/167 71/76/167
f 88/97/168 82/88/168 90/101/168
f 97/110/169 96/109/169 98/111/169
f 93/104/170 92/103/170 94/106/170
f 68/68/171 93/104/171 69/71/171
f 96/109/172 78/84/172 98/111/172
f 76/82/173 97/110/173 75/81/173
f 92/103/174 70/73/174 94/106/174
f 10/10/67 74/80/67 13/13/67
f 21/21/68 99/112/68 31/31/68
f 9/9/69 101/114/69 17/17/69
f 6/6/70 78/84/70 79/85/70
f 76/82/71 123/145/71 77/83/71
f 22/22/72 70/74/72 41/41/72
f 11/11/73 109/122/73 110/123/73
f 6/6/74 89/99/74 16/16/74
f 76/82/175 120/139/175 124/146/175
f 1/1/76 99/112/76 100/113/76
f 22/22/77 93/105/77 94/107/77
f 2/2/78 93/105/78 39/39/78
f 88/97/79 125/147/79 113/128/79
f 2/2/80 82/89/80 69/72/80
f 96/109/81 129/154/81 95/108/81
f 9/9/82 107/120/82 108/121/82
f 148/173/83 115/133/83 112/126/83
f 147/172/84 122/143/84 155/180/84
f 150/175/85 128/153/85 114/130/85
f 147/172/86 121/142/86 111/124/86
f 148/173/87 113/129/87 149/174/87
f 150/175/88 115/133/88 151/176/88
f 152/177/89 121/142/89 153/178/89
f 157/182/90 124/146/90 156/181/90
f 158/183/91 113/129/91 125/148/91
f 152/177/92 124/146/92 120/140/92
f 159/184/93 128/153/93 154/179/93
f 157/182/94 130/155/94 123/145/94
f 158/183/95 126/149/95 161/186/95
f 159/184/96 122/143/96 127/150/96
f 162/187/97 130/155/97 160/185/97
f 162/187/98 126/149/98 129/154/98
f 7/7/99 103/116/99 104/117/99
f 68/68/100 114/131/100 67/67/100
f 68/69/101 112/127/101 115/134/101
f 11/11/102 105/118/102 14/14/102
f 88/97/103 112/127/103 87/96/103
f 7/7/104 107/120/104 15/15/104
f 21/21/105 116/135/105 117/136/105
f 23/23/106 103/116/106 42/42/106
f 5/5/107 105/118/107 106/119/107
f 96/109/108 123/145/108 130/155/108
f 92/103/109 127/151/109 91/102/109
f 3/3/110 116/135/110 43/43/110
f 72/77/111 127/151/111 122/144/111
f 23/23/112 118/137/112 119/138/112
f 72/77/176 111/125/176 73/78/176
f 5/5/114 118/137/114 40/40/114
f 65/65/115 134/159/115 138/163/115
f 62/62/115 134/159/115 66/66/115
f 65/65/116 135/160/116 25/25/116
f 63/63/117 136/161/117 61/61/117
f 62/62/117 136/161/117 132/157/117
f 60/60/116 135/160/116 131/156/116
f 63/63/118 137/162/118 133/158/118
f 60/60/118 137/162/118 64/64/118
f 134/159/119 146/171/119 138/163/119
f 134/159/119 140/165/119 142/167/119
f 135/160/120 146/171/120 143/168/120
f 136/161/121 141/166/121 144/169/121
f 136/161/121 140/165/121 132/157/121
f 135/160/120 139/164/120 131/156/120
f 137/162/122 141/166/122 133/158/122
f 137/162/122 139/164/122 145/170/122
f 106/119/123 162/187/123 118/137/123
f 119/138/124 162/187/124 160/185/124
f 102/115/125 159/184/125 116/135/125
f 106/119/126 158/183/126 161/186/126
f 119/138/127 157/182/127 103/116/127
f 117/136/128 159/184/128 154/179/128
f 104/117/129 152/177/129 107/120/129
f 110/123/130 158/183/130 105/118/130
f 104/117/131 157/182/131 156/181/131
f 108/121/132 152/177/132 153/178/132
f 100/113/133 150/175/133 151/176/133
f 110/123/134 148/173/134 149/174/134
f 108/121/135 147/172/135 101/114/135
f 117/136/136 150/175/136 99/112/136
f 102/115/137 147/172/137 155/180/137
f 100/113/138 148/173/138 109/122/138
