# Blender 3.5.1
# www.blender.org
mtllib LudumDare_Pillar_Des01_V01.mtl
o Cube
v -0.736350 0.019711 0.859953
v -0.844993 7.019955 0.986832
v -0.736350 0.019711 -0.859953
v -0.844993 7.019955 -0.986832
v 0.736350 0.019711 0.859953
v 0.844993 7.019955 0.986832
v 0.736350 0.019711 -0.859953
v 0.844993 7.019955 -0.986832
v -0.844993 7.135555 0.986832
v -0.844993 7.135555 -0.986832
v 0.844993 7.135555 -0.986832
v 0.844993 7.135555 0.986832
v -0.969755 7.307748 1.132536
v -0.969755 7.307748 -1.132536
v 0.969755 7.307748 -1.132536
v 0.969755 7.307748 1.132536
v -0.969755 7.440566 1.132536
v -0.969755 7.440566 -1.132536
v 0.969755 7.440566 -1.132536
v 0.969755 7.440566 1.132536
v -1.080575 7.553665 1.261959
v -1.080575 7.553665 -1.261959
v 1.080575 7.553665 -1.261959
v 1.080575 7.553665 1.261959
v -1.080575 7.907435 1.261959
v -1.080575 7.907435 -1.261959
v 1.080575 7.907435 -1.261959
v 1.080575 7.907435 1.261959
v -0.912872 8.037030 1.066105
v -0.912872 8.037030 -1.066105
v 0.912872 8.037030 -1.066105
v 0.912872 8.037030 1.066105
v -0.844993 6.476582 0.986832
v -0.844993 6.476582 -0.986832
v 0.844993 6.476582 -0.986832
v 0.844993 6.476582 0.986832
v -0.844993 6.381948 -0.986832
v 0.844993 6.381948 -0.986832
v 0.844993 6.381948 0.986832
v -0.844993 6.381948 0.986832
v -0.878187 6.426351 1.025598
v -0.878187 6.991069 1.025598
v -0.878187 6.991069 -1.025598
v 0.878187 6.991069 -1.025598
v 0.878187 6.991069 1.025598
v -0.878187 6.426351 -1.025598
v 0.878187 6.426351 -1.025598
v 0.878187 6.426351 1.025598
v -0.844993 0.331585 -0.986832
v 0.844993 0.331585 -0.986832
v 0.844993 0.331585 0.986832
v -0.844993 0.331585 0.986832
vn -0.0000 0.8019 0.5975
vn -0.0000 -0.6110 0.7917
vn -0.6564 0.7544 -0.0000
vn 0.6564 0.7544 -0.0000
vn -0.0000 -1.0000 -0.0000
vn 1.0000 -0.0000 -0.0000
vn -0.0000 -0.6459 0.7634
vn -1.0000 -0.0000 -0.0000
vn -0.0000 -0.0000 1.0000
vn -0.0000 -0.0000 -1.0000
vn -0.0000 -0.6459 -0.7634
vn 0.8098 -0.5867 -0.0000
vn -0.8098 -0.5867 -0.0000
vn 0.7143 -0.6999 -0.0000
vn -0.7143 -0.6999 -0.0000
vn -0.0000 -0.7530 0.6580
vn -0.0000 -0.7530 -0.6580
vn 0.6115 0.7913 -0.0000
vn -0.0000 1.0000 -0.0000
vn -0.6115 0.7913 -0.0000
vn -0.0000 0.8340 0.5518
vn -0.0000 0.8340 -0.5518
vn -0.0000 -0.6110 -0.7917
vn -0.0000 0.8019 -0.5975
vn 0.8343 -0.5513 -0.0000
vn -0.8343 -0.5513 -0.0000
vn -0.0000 -0.3768 0.9263
vn 0.9443 -0.3290 -0.0000
vn -0.0000 -0.3768 -0.9263
vn -0.9443 -0.3290 -0.0000
vn -0.6565 0.7544 -0.0000
vn 0.6565 0.7544 -0.0000
vn -0.0000 -0.6460 0.7634
vn -0.0000 -0.6460 -0.7634
vt 0.375000 0.000000
vt 0.125000 0.750000
vt 0.375000 1.000000
vt 0.625000 1.000000
vt 0.625000 0.000000
vt 0.125000 0.500000
vt 0.375000 0.250000
vt 0.625000 0.250000
vt 0.375000 0.750000
vt 0.625000 0.750000
vt 0.375000 0.500000
vt 0.625000 0.500000
vt 0.625000 1.000000
vt 0.625000 0.000000
vt 0.625000 0.250000
vt 0.625000 0.500000
vt 0.625000 0.750000
vt 0.625000 1.000000
vt 0.625000 0.000000
vt 0.625000 0.250000
vt 0.625000 0.500000
vt 0.625000 0.750000
vt 0.625000 1.000000
vt 0.625000 0.000000
vt 0.625000 0.250000
vt 0.625000 0.500000
vt 0.625000 0.750000
vt 0.625000 1.000000
vt 0.625000 0.000000
vt 0.625000 0.250000
vt 0.625000 0.500000
vt 0.625000 0.750000
vt 0.625000 1.000000
vt 0.625000 0.000000
vt 0.625000 0.250000
vt 0.625000 0.500000
vt 0.625000 0.750000
vt 0.875000 0.750000
vt 0.625000 0.000000
vt 0.625000 1.000000
vt 0.875000 0.500000
vt 0.625000 0.250000
vt 0.625000 0.500000
vt 0.625000 0.750000
vt 0.605595 1.000000
vt 0.605595 0.000000
vt 0.605595 0.250000
vt 0.605595 0.500000
vt 0.605595 0.750000
vt 0.602215 0.250000
vt 0.602215 0.500000
vt 0.602215 0.750000
vt 0.602215 0.000000
vt 0.602215 1.000000
vt 0.605595 1.000000
vt 0.605595 0.000000
vt 0.625000 0.000000
vt 0.625000 1.000000
vt 0.625000 0.250000
vt 0.625000 0.500000
vt 0.625000 0.750000
vt 0.605595 0.250000
vt 0.605595 0.500000
vt 0.605595 0.750000
vt 0.386138 0.250000
vt 0.386138 0.500000
vt 0.386138 0.750000
vt 0.386138 1.000000
vt 0.386138 0.000000
s 0
f 2/4/1 45/61/1 6/10/1
f 34/47/2 47/63/2 35/48/2
f 4/8/3 42/57/3 2/5/3
f 6/10/4 44/60/4 8/12/4
f 7/11/5 1/2/5 3/6/5
f 8/12/6 12/17/6 6/10/6
f 12/17/7 13/18/7 9/13/7
f 2/5/8 10/15/8 4/8/8
f 6/10/9 9/13/9 2/4/9
f 4/8/10 11/16/10 8/12/10
f 15/21/6 20/27/6 16/22/6
f 10/15/11 15/21/11 11/16/11
f 11/16/12 16/22/12 12/17/12
f 9/14/13 14/20/13 10/15/13
f 19/26/14 24/32/14 20/27/14
f 13/19/8 18/25/8 14/20/8
f 16/22/9 17/23/9 13/18/9
f 14/20/10 19/26/10 15/21/10
f 24/32/9 25/33/9 21/28/9
f 17/24/15 22/30/15 18/25/15
f 20/27/16 21/28/16 17/23/16
f 18/25/17 23/31/17 19/26/17
f 27/36/18 32/44/18 28/37/18
f 22/30/10 27/36/10 23/31/10
f 23/31/6 28/37/6 24/32/6
f 21/29/8 26/35/8 22/30/8
f 30/41/19 32/44/19 31/43/19
f 25/34/20 30/42/20 26/35/20
f 28/37/21 29/40/21 25/33/21
f 26/35/22 31/43/22 27/36/22
f 36/49/9 40/54/9 39/52/9
f 35/48/6 39/52/6 38/51/6
f 34/47/10 38/51/10 37/50/10
f 33/46/8 37/50/8 40/53/8
f 40/53/8 49/65/8 52/69/8
f 37/50/10 50/66/10 49/65/10
f 38/51/6 51/67/6 50/66/6
f 39/52/9 52/68/9 51/67/9
f 42/57/8 46/62/8 41/56/8
f 43/59/10 47/63/10 46/62/10
f 44/60/6 48/64/6 47/63/6
f 45/61/9 41/55/9 48/64/9
f 36/49/23 41/55/23 33/45/23
f 8/12/24 43/59/24 4/8/24
f 33/46/25 46/62/25 34/47/25
f 35/48/26 48/64/26 36/49/26
f 51/67/27 1/3/27 5/9/27
f 50/66/28 5/9/28 7/11/28
f 49/65/29 7/11/29 3/7/29
f 52/69/30 3/7/30 1/1/30
f 2/4/1 42/58/1 45/61/1
f 34/47/2 46/62/2 47/63/2
f 4/8/31 43/59/31 42/57/31
f 6/10/32 45/61/32 44/60/32
f 7/11/5 5/9/5 1/2/5
f 8/12/6 11/16/6 12/17/6
f 12/17/33 16/22/33 13/18/33
f 2/5/8 9/14/8 10/15/8
f 6/10/9 12/17/9 9/13/9
f 4/8/10 10/15/10 11/16/10
f 15/21/6 19/26/6 20/27/6
f 10/15/34 14/20/34 15/21/34
f 11/16/12 15/21/12 16/22/12
f 9/14/13 13/19/13 14/20/13
f 19/26/14 23/31/14 24/32/14
f 13/19/8 17/24/8 18/25/8
f 16/22/9 20/27/9 17/23/9
f 14/20/10 18/25/10 19/26/10
f 24/32/9 28/37/9 25/33/9
f 17/24/15 21/29/15 22/30/15
f 20/27/16 24/32/16 21/28/16
f 18/25/17 22/30/17 23/31/17
f 27/36/18 31/43/18 32/44/18
f 22/30/10 26/35/10 27/36/10
f 23/31/6 27/36/6 28/37/6
f 21/29/8 25/34/8 26/35/8
f 30/41/19 29/38/19 32/44/19
f 25/34/20 29/39/20 30/42/20
f 28/37/21 32/44/21 29/40/21
f 26/35/22 30/42/22 31/43/22
f 36/49/9 33/45/9 40/54/9
f 35/48/6 36/49/6 39/52/6
f 34/47/10 35/48/10 38/51/10
f 33/46/8 34/47/8 37/50/8
f 40/53/8 37/50/8 49/65/8
f 37/50/10 38/51/10 50/66/10
f 38/51/6 39/52/6 51/67/6
f 39/52/9 40/54/9 52/68/9
f 42/57/8 43/59/8 46/62/8
f 43/59/10 44/60/10 47/63/10
f 44/60/6 45/61/6 48/64/6
f 45/61/9 42/58/9 41/55/9
f 36/49/23 48/64/23 41/55/23
f 8/12/24 44/60/24 43/59/24
f 33/46/25 41/56/25 46/62/25
f 35/48/26 47/63/26 48/64/26
f 51/67/27 52/68/27 1/3/27
f 50/66/28 51/67/28 5/9/28
f 49/65/29 50/66/29 7/11/29
f 52/69/30 49/65/30 3/7/30
