# Blender 3.5.1
# www.blender.org
mtllib LudumDare_Wall_LShapeRight_Des01_V01.mtl
o Cube.005
v -0.516789 0.032693 3.999095
v -0.516789 2.032693 3.999095
v -0.516789 0.032693 -4.064960
v -0.516789 2.032693 -3.999095
v 0.575013 0.032693 3.999095
v 0.575013 2.032693 3.999095
v 0.575013 0.032693 -4.064960
v 0.575013 2.032693 -3.999095
v -0.516789 1.708693 3.999095
v -0.516789 1.708693 -3.999095
v 0.575013 1.708693 -3.999095
v 0.575013 1.708693 3.999095
v -0.516789 0.138147 -3.999095
v 0.575013 0.138147 -3.999095
v 0.575013 0.138147 4.058125
v -0.516789 0.138147 4.058125
v -0.516789 1.110203 3.999095
v -0.516789 1.110203 -3.999095
v 0.575013 1.110203 -3.999095
v 0.575013 1.110203 3.999095
v -0.516789 0.845574 -3.999095
v 0.575013 0.845574 -3.999095
v 0.575013 0.845574 3.999095
v -0.516789 0.845574 3.999095
v -0.531870 -0.001755 -4.058072
v -0.531870 -0.001755 3.999572
v -0.531870 1.808083 4.058602
v -0.531870 1.990762 4.058602
v -0.531870 1.990762 -4.058072
v -0.531870 0.043877 -3.992206
v 0.590094 -0.001755 -4.058072
v 0.590094 1.990762 -4.058072
v 0.590094 0.043877 -4.058072
v 0.590094 -0.001755 3.999572
v 0.590094 1.990762 4.058602
v 0.590094 0.043877 4.058602
v -0.531870 1.808083 -4.058072
v 0.590094 1.808083 -4.058072
v 0.590094 1.808083 4.058602
v -0.531870 0.043877 4.058602
v -0.531870 0.921119 4.058602
v -0.531870 1.042787 4.058602
v -0.531870 1.042787 -4.058072
v 0.590094 1.042787 -4.058072
v 0.590094 1.042787 4.058602
v -0.531870 0.921119 -4.058072
v 0.590094 0.921119 -4.058072
v 0.590094 0.921119 4.058602
v -0.516789 0.032693 2.802825
v -0.516789 2.032693 2.802825
v 0.575013 0.032693 2.802825
v 0.575013 2.032693 2.802825
v 0.575013 1.708693 2.802825
v -0.516789 1.708693 2.802825
v -0.516789 0.138147 2.802825
v 0.575013 0.138147 2.802825
v -0.516789 1.110203 2.802825
v 0.575013 1.110203 2.802825
v 0.575013 0.845574 2.802825
v -0.516789 0.845574 2.802825
v -0.531870 -0.001755 2.782174
v -0.531870 1.990762 2.782173
v 0.590094 -0.001755 2.782173
v 0.590094 1.990762 2.782174
v 0.590094 1.808083 2.782174
v -0.531870 1.808083 2.782173
v -0.531870 0.043877 2.782173
v 0.590094 0.043877 2.782174
v -0.531870 1.042787 2.782173
v 0.590094 1.042787 2.782174
v 0.590094 0.921119 2.782174
v -0.531870 0.921119 2.782173
v -0.516789 2.032693 -2.872369
v 0.575013 0.032693 -2.872369
v -0.516789 1.708693 -2.872369
v -0.516789 0.138147 -2.872369
v -0.516789 1.110203 -2.872369
v -0.516789 0.845574 -2.872369
v -0.531870 1.990762 -2.870042
v 0.590094 -0.001755 -2.870042
v -0.531870 1.808083 -2.870042
v -0.531870 0.043877 -2.870042
v -0.531870 1.042787 -2.870042
v -0.531870 0.921119 -2.870042
v -0.516789 0.032693 -2.872369
v 0.575013 2.032693 -2.872369
v 0.575013 1.708693 -2.872369
v 0.575013 0.138147 -2.872369
v 0.575013 1.110203 -2.872369
v 0.575013 0.845574 -2.872369
v -0.531870 -0.001755 -2.870042
v 0.590094 1.990762 -2.870042
v 0.590094 1.808083 -2.870042
v 0.590094 0.043877 -2.870042
v 0.590094 1.042787 -2.870042
v 0.590094 0.921119 -2.870042
v 3.064856 2.074107 -4.058072
v 3.049774 2.116038 -3.999095
v 3.049774 0.928919 -3.999095
v 3.049774 0.221492 -3.999095
v 3.049774 1.792038 -3.999095
v 3.049774 1.193548 -3.999095
v 3.064856 0.127222 -4.058072
v 3.064856 0.081590 -4.058072
v 3.064856 0.081590 -2.870042
v 3.064856 1.891428 -4.058072
v 3.064856 1.126132 -4.058072
v 3.064856 1.004464 -4.058072
v 3.049774 2.116038 -2.872369
v 3.049774 1.792038 -2.872369
v 3.049774 0.221492 -2.872369
v 3.049774 1.193548 -2.872369
v 3.049774 0.928919 -2.872369
v 3.064856 2.074107 -2.870042
v 3.064856 1.891428 -2.870042
v 3.064856 0.127222 -2.870042
v 3.064856 1.126132 -2.870042
v 3.064856 1.004464 -2.870042
vn -0.0000 -0.6188 0.7856
vn -0.0585 -0.0635 -0.9963
vn -0.0000 -0.0139 -0.9999
vn -0.9759 0.2183 -0.0000
vn -0.0000 -1.0000 -0.0000
vn -0.0000 1.0000 -0.0000
vn -0.0000 -0.0000 1.0000
vn -0.0000 -0.0000 -1.0000
vn -1.0000 -0.0000 -0.0000
vn -0.9410 0.3384 -0.0000
vn -0.9874 0.1580 -0.0000
vn -0.0000 -0.5137 0.8580
vn 0.9161 -0.4010 -0.0000
vn -0.9161 -0.4010 -0.0000
vn -0.9806 -0.1958 -0.0000
vn -0.0000 0.0832 0.9965
vn -0.0000 -0.7912 0.6116
vn -0.0000 -0.5103 -0.8600
vn -0.0000 0.6584 -0.7526
vn -0.0000 0.8175 0.5760
vn -0.0273 0.8114 -0.5839
vn -0.0000 0.1961 0.9806
vn -0.9887 -0.1500 -0.0000
vn -0.0000 0.0051 1.0000
vn -0.0000 -0.6154 -0.7882
vn -0.0000 0.8150 -0.5794
vn -0.0000 0.6618 0.7497
vn 0.9759 0.2183 -0.0000
vn 0.9874 0.1580 -0.0000
vn 1.0000 -0.0000 -0.0000
vn 0.9410 0.3384 -0.0000
vn -0.0012 0.0342 0.9994
vn -0.0337 0.9994 -0.0000
vn -0.0018 0.0547 0.9985
vn -0.0178 0.5282 -0.8489
vn -0.0008 0.0245 0.9997
vn 0.9806 -0.1958 -0.0000
vn 0.9887 -0.1500 -0.0000
vn 0.0010 -0.0310 0.9995
vn 0.0337 -0.9994 -0.0000
vn -0.0221 0.6555 -0.7549
vn 0.0008 -0.0235 0.9997
vn 0.0172 -0.5122 -0.8587
vn 0.0208 -0.6178 -0.7860
vn -0.0000 0.5304 -0.8478
vn -0.0000 -0.0138 -0.9999
vn -0.0334 0.8215 -0.5692
vn -0.0000 0.8174 0.5760
vn -0.0000 0.0050 1.0000
vn -0.9161 -0.4011 -0.0000
vt 0.125000 0.750000
vt 0.875000 0.750000
vt 0.125000 0.500000
vt 0.875000 0.500000
vt 0.375000 0.750000
vt 0.000000 0.000000
vt 0.625000 0.750000
vt 0.375000 0.500000
vt 0.625000 0.500000
vt 0.584500 1.000000
vt 0.584500 0.000000
vt 0.584500 0.250000
vt 0.584500 0.500000
vt 0.000000 0.000000
vt 0.584500 0.750000
vt 0.388182 0.250000
vt 0.388182 0.500000
vt 0.388182 0.750000
vt 0.000000 0.000000
vt 0.388182 0.000000
vt 0.388182 1.000000
vt 0.509689 1.000000
vt 0.509689 0.000000
vt 0.509689 0.250000
vt 0.509689 0.500000
vt 0.509689 0.750000
vt 0.000000 0.000000
vt 0.476610 0.250000
vt 0.476610 0.500000
vt 0.000000 0.000000
vt 0.476610 0.750000
vt 0.476610 1.000000
vt 0.476610 0.000000
vt 0.375000 0.250000
vt 0.125000 0.500000
vt 0.125000 0.750000
vt 0.375000 1.000000
vt 0.375000 0.000000
vt 0.584500 1.000000
vt 0.584500 0.000000
vt 0.625000 1.000000
vt 0.875000 0.750000
vt 0.625000 0.000000
vt 0.625000 0.250000
vt 0.875000 0.500000
vt 0.388182 0.250000
vt 0.375000 0.500000
vt 0.625000 0.500000
vt 0.388182 0.500000
vt 0.000000 0.000000
vt 0.375000 0.750000
vt 0.000000 0.000000
vt 0.625000 0.750000
vt 0.000000 0.000000
vt 0.388182 0.750000
vt 0.584500 0.250000
vt 0.584500 0.500000
vt 0.000000 0.000000
vt 0.584500 0.750000
vt 0.388182 1.000000
vt 0.388182 0.000000
vt 0.476610 0.000000
vt 0.476610 1.000000
vt 0.509689 1.000000
vt 0.509689 0.000000
vt 0.509689 0.250000
vt 0.509689 0.500000
vt 0.000000 0.000000
vt 0.509689 0.750000
vt 0.476610 0.250000
vt 0.476610 0.500000
vt 0.000000 0.000000
vt 0.476610 0.750000
vt 0.125000 0.702396
vt 0.875000 0.702396
vt 0.375000 0.702396
vt 0.000000 0.000000
vt 0.625000 0.702396
vt 0.000000 0.000000
vt 0.584500 0.702396
vt 0.584500 0.047604
vt 0.388182 0.047604
vt 0.000000 0.000000
vt 0.388182 0.702396
vt 0.509689 0.047604
vt 0.000000 0.000000
vt 0.509689 0.702396
vt 0.000000 0.000000
vt 0.476610 0.702396
vt 0.476610 0.047604
vt 0.375000 0.047604
vt 0.125000 0.702396
vt 0.625000 0.047604
vt 0.875000 0.702396
vt 0.000000 0.000000
vt 0.375000 0.702396
vt 0.000000 0.000000
vt 0.625000 0.702396
vt 0.000000 0.000000
vt 0.584500 0.702396
vt 0.584500 0.047604
vt 0.388182 0.047604
vt 0.000000 0.000000
vt 0.388182 0.702396
vt 0.509689 0.047604
vt 0.000000 0.000000
vt 0.509689 0.702396
vt 0.000000 0.000000
vt 0.476610 0.702396
vt 0.476610 0.047604
vt 0.875000 0.533527
vt 0.375000 0.533527
vt 0.584500 0.216473
vt 0.388182 0.216473
vt 0.509689 0.216473
vt 0.476610 0.216473
vt 0.625000 0.216473
vt 0.875000 0.533527
vt 0.375000 0.533527
vt 0.584500 0.216473
vt 0.388182 0.216473
vt 0.509689 0.216473
vt 0.476610 0.216473
vt 0.125000 0.533527
vt 0.625000 0.533527
vt 0.584500 0.533527
vt 0.388182 0.533527
vt 0.509689 0.533527
vt 0.476610 0.533527
vt 0.125000 0.533527
vt 0.375000 0.216473
vt 0.625000 0.533527
vt 0.584500 0.533527
vt 0.388182 0.533527
vt 0.509689 0.533527
vt 0.476610 0.533527
vt 0.625000 0.500000
vt 0.625000 0.500000
vt 0.476610 0.500000
vt 0.388182 0.500000
vt 0.584500 0.500000
vt 0.509689 0.500000
vt 0.388182 0.500000
vt 0.375000 0.500000
vt 0.375000 0.533527
vt 0.584500 0.500000
vt 0.509689 0.500000
vt 0.476610 0.500000
vt 0.625000 0.533527
vt 0.584500 0.533527
vt 0.388182 0.533527
vt 0.509689 0.533527
vt 0.476610 0.533527
vt 0.625000 0.533527
vt 0.584500 0.533527
vt 0.388182 0.533527
vt 0.509689 0.533527
vt 0.476610 0.533527
s 0
f 23/31/1 41/63/1 24/32/1
f 13/16/2 33/49/2 30/46/2
f 5/5/3 26/36/3 1/1/3
f 18/24/4 83/122/4 77/115/4
f 51/76/5 1/1/5 49/74/5
f 50/75/6 6/7/6 52/78/6
f 12/15/7 17/22/7 20/26/7
f 10/12/8 19/25/8 18/24/8
f 75/113/9 18/24/9 77/115/9
f 33/49/8 104/144/8 31/47/8
f 4/4/10 79/118/10 73/111/10
f 76/114/11 30/46/11 82/121/11
f 12/15/12 27/39/12 9/10/12
f 49/74/13 26/36/13 61/92/13
f 74/112/14 31/47/14 80/119/14
f 24/33/15 72/110/15 60/90/15
f 23/31/16 16/21/16 15/18/16
f 21/28/8 14/17/8 13/16/8
f 78/116/9 13/16/9 76/114/9
f 79/117/9 37/56/9 81/120/9
f 29/44/8 38/57/8 37/56/8
f 35/53/7 27/39/7 39/59/7
f 91/131/9 30/46/9 25/34/9
f 25/34/8 33/49/8 31/47/8
f 36/55/17 26/37/17 34/51/17
f 83/122/9 46/70/9 84/123/9
f 43/66/8 47/71/8 46/70/8
f 45/69/7 41/63/7 48/73/7
f 10/12/18 38/57/18 11/13/18
f 19/25/19 43/66/19 18/24/19
f 2/2/20 35/53/20 6/7/20
f 32/48/21 98/138/21 97/137/21
f 3/3/22 31/47/22 7/8/22
f 9/11/23 66/101/23 54/81/23
f 16/21/24 36/55/24 15/18/24
f 21/28/25 47/71/25 22/29/25
f 8/9/26 29/45/26 4/4/26
f 17/22/27 45/69/27 20/26/27
f 89/128/28 70/107/28 95/135/28
f 75/113/23 66/101/23 81/120/23
f 88/127/29 68/104/29 94/134/29
f 95/135/30 71/109/30 96/136/30
f 42/65/9 72/110/9 41/62/9
f 94/134/30 63/96/30 80/119/30
f 26/38/9 67/102/9 61/91/9
f 92/132/30 65/100/30 93/133/30
f 28/43/9 66/101/9 27/40/9
f 24/33/9 55/82/9 16/20/9
f 90/129/30 56/84/30 88/127/30
f 78/116/15 72/110/15 84/123/15
f 51/76/14 34/51/14 5/5/14
f 85/124/13 61/92/13 91/130/13
f 86/125/31 64/98/31 92/132/31
f 55/82/11 40/61/11 16/20/11
f 2/2/10 62/94/10 28/42/10
f 9/11/9 57/85/9 17/23/9
f 87/126/30 58/87/30 89/128/30
f 73/111/6 52/78/6 86/125/6
f 74/112/5 49/74/5 85/124/5
f 17/23/4 69/105/4 42/65/4
f 7/8/5 85/124/5 3/3/5
f 4/4/6 86/125/6 8/9/6
f 95/135/32 112/152/32 89/128/32
f 32/48/8 106/146/8 38/57/8
f 85/124/13 25/35/13 3/3/13
f 21/28/15 84/123/15 46/70/15
f 86/125/33 98/138/33 8/9/33
f 92/132/34 109/149/34 86/125/34
f 33/49/35 100/140/35 103/143/35
f 94/134/36 111/151/36 88/127/36
f 87/126/7 112/152/7 110/150/7
f 10/12/23 81/120/23 37/56/23
f 95/135/7 118/158/7 117/157/7
f 90/129/37 71/109/37 59/89/37
f 69/105/9 84/123/9 72/110/9
f 67/102/9 91/131/9 61/91/9
f 62/93/9 81/120/9 66/101/9
f 60/90/9 76/114/9 55/82/9
f 74/112/14 63/96/14 51/76/14
f 76/114/11 67/102/11 55/82/11
f 73/111/10 62/94/10 50/75/10
f 87/126/38 65/100/38 53/80/38
f 54/81/9 77/115/9 57/85/9
f 77/115/4 69/105/4 57/85/4
f 101/141/38 115/155/38 110/150/38
f 99/139/37 118/158/37 113/153/37
f 101/141/30 112/152/30 102/142/30
f 98/138/31 114/154/31 97/137/31
f 99/139/30 111/151/30 100/140/30
f 97/137/30 115/155/30 106/146/30
f 103/143/30 105/145/30 104/144/30
f 107/147/30 118/158/30 108/148/30
f 100/140/29 116/156/29 103/143/29
f 102/142/28 117/157/28 107/147/28
f 22/29/8 100/140/8 14/17/8
f 96/136/39 113/153/39 118/158/39
f 31/47/40 105/145/40 80/119/40
f 44/67/41 102/142/41 107/147/41
f 90/129/7 111/151/7 113/153/7
f 93/133/42 110/150/42 115/155/42
f 44/67/8 108/148/8 47/71/8
f 92/132/7 115/155/7 114/154/7
f 11/13/8 102/142/8 19/25/8
f 38/57/43 101/141/43 11/13/43
f 47/71/44 99/139/44 22/29/44
f 94/134/7 105/145/7 116/156/7
f 34/50/30 63/95/30 68/103/30
f 36/54/30 34/50/30 68/103/30
f 36/54/29 68/103/29 56/83/29
f 15/19/29 36/54/29 56/83/29
f 59/88/30 23/30/30 56/83/30
f 6/6/31 35/52/31 64/97/31
f 23/30/37 59/88/37 71/108/37
f 48/72/37 23/30/37 71/108/37
f 48/72/30 71/108/30 70/106/30
f 45/68/30 48/72/30 70/106/30
f 58/86/28 20/27/28 70/106/28
f 23/30/30 15/19/30 56/83/30
f 20/27/30 58/86/30 53/79/30
f 12/14/30 20/27/30 53/79/30
f 12/14/38 53/79/38 65/99/38
f 39/58/38 12/14/38 65/99/38
f 39/58/30 65/99/30 64/97/30
f 35/52/30 39/58/30 64/97/30
f 52/77/31 6/6/31 64/97/31
f 20/27/28 45/68/28 70/106/28
f 23/31/1 48/73/1 41/63/1
f 13/16/45 14/17/45 33/49/45
f 5/5/46 34/51/46 26/36/46
f 18/24/4 43/66/4 83/122/4
f 51/76/5 5/5/5 1/1/5
f 50/75/6 2/2/6 6/7/6
f 12/15/7 9/10/7 17/22/7
f 10/12/8 11/13/8 19/25/8
f 75/113/9 10/12/9 18/24/9
f 33/49/8 103/143/8 104/144/8
f 4/4/10 29/45/10 79/118/10
f 76/114/11 13/16/11 30/46/11
f 12/15/12 39/59/12 27/39/12
f 49/74/13 1/1/13 26/36/13
f 74/112/14 7/8/14 31/47/14
f 24/33/15 41/62/15 72/110/15
f 23/31/16 24/32/16 16/21/16
f 21/28/8 22/29/8 14/17/8
f 78/116/9 21/28/9 13/16/9
f 79/117/9 29/44/9 37/56/9
f 29/44/8 32/48/8 38/57/8
f 35/53/7 28/41/7 27/39/7
f 91/131/9 82/121/9 30/46/9
f 25/34/47 30/46/47 33/49/47
f 36/55/17 40/60/17 26/37/17
f 83/122/9 43/66/9 46/70/9
f 43/66/8 44/67/8 47/71/8
f 45/69/7 42/64/7 41/63/7
f 10/12/18 37/56/18 38/57/18
f 19/25/19 44/67/19 43/66/19
f 2/2/48 28/42/48 35/53/48
f 32/48/21 8/9/21 98/138/21
f 3/3/22 25/35/22 31/47/22
f 9/11/23 27/40/23 66/101/23
f 16/21/49 40/60/49 36/55/49
f 21/28/25 46/70/25 47/71/25
f 8/9/26 32/48/26 29/45/26
f 17/22/27 42/64/27 45/69/27
f 89/128/28 58/87/28 70/107/28
f 75/113/23 54/81/23 66/101/23
f 88/127/29 56/84/29 68/104/29
f 95/135/30 70/107/30 71/109/30
f 42/65/9 69/105/9 72/110/9
f 94/134/30 68/104/30 63/96/30
f 26/38/9 40/61/9 67/102/9
f 92/132/30 64/98/30 65/100/30
f 28/43/9 62/93/9 66/101/9
f 24/33/9 60/90/9 55/82/9
f 90/129/30 59/89/30 56/84/30
f 78/116/15 60/90/15 72/110/15
f 51/76/50 63/96/50 34/51/50
f 85/124/13 49/74/13 61/92/13
f 86/125/31 52/78/31 64/98/31
f 55/82/11 67/102/11 40/61/11
f 2/2/10 50/75/10 62/94/10
f 9/11/9 54/81/9 57/85/9
f 87/126/30 53/80/30 58/87/30
f 73/111/6 50/75/6 52/78/6
f 74/112/5 51/76/5 49/74/5
f 17/23/4 57/85/4 69/105/4
f 7/8/5 74/112/5 85/124/5
f 4/4/6 73/111/6 86/125/6
f 95/135/32 117/157/32 112/152/32
f 32/48/8 97/137/8 106/146/8
f 85/124/13 91/130/13 25/35/13
f 21/28/15 78/116/15 84/123/15
f 86/125/33 109/149/33 98/138/33
f 92/132/34 114/154/34 109/149/34
f 33/49/35 14/17/35 100/140/35
f 94/134/36 116/156/36 111/151/36
f 87/126/7 89/128/7 112/152/7
f 10/12/23 75/113/23 81/120/23
f 95/135/7 96/136/7 118/158/7
f 90/129/37 96/136/37 71/109/37
f 69/105/9 83/122/9 84/123/9
f 67/102/9 82/121/9 91/131/9
f 62/93/9 79/117/9 81/120/9
f 60/90/9 78/116/9 76/114/9
f 74/112/14 80/119/14 63/96/14
f 76/114/11 82/121/11 67/102/11
f 73/111/10 79/118/10 62/94/10
f 87/126/38 93/133/38 65/100/38
f 54/81/9 75/113/9 77/115/9
f 77/115/4 83/122/4 69/105/4
f 101/141/38 106/146/38 115/155/38
f 99/139/37 108/148/37 118/158/37
f 101/141/30 110/150/30 112/152/30
f 98/138/31 109/149/31 114/154/31
f 99/139/30 113/153/30 111/151/30
f 97/137/30 114/154/30 115/155/30
f 103/143/30 116/156/30 105/145/30
f 107/147/30 117/157/30 118/158/30
f 100/140/29 111/151/29 116/156/29
f 102/142/28 112/152/28 117/157/28
f 22/29/8 99/139/8 100/140/8
f 96/136/39 90/129/39 113/153/39
f 31/47/40 104/144/40 105/145/40
f 44/67/41 19/25/41 102/142/41
f 90/129/7 88/127/7 111/151/7
f 93/133/42 87/126/42 110/150/42
f 44/67/8 107/147/8 108/148/8
f 92/132/7 93/133/7 115/155/7
f 11/13/8 101/141/8 102/142/8
f 38/57/43 106/146/43 101/141/43
f 47/71/44 108/148/44 99/139/44
f 94/134/7 80/119/7 105/145/7
