# Blender 3.5.0
# www.blender.org
mtllib Rock4.mtl
o rock4
v -0.179608 -0.034618 -0.404413
v 0.395692 0.163049 0.274812
v -0.326282 0.181733 0.538623
v -0.055808 0.104159 0.494046
v 0.074838 0.710294 -0.094761
v -0.142766 0.623842 0.360668
v 0.109592 0.344540 0.466840
v -0.461586 0.074195 0.233592
v -0.064054 0.675651 0.135915
v 0.441541 0.330600 0.136771
v 0.660569 0.076930 -0.124108
v -0.046023 0.577364 0.471718
v 0.096703 0.597799 0.111048
v 0.008750 0.015866 0.361711
v -0.660890 0.117423 0.177094
v -0.395436 0.101626 -0.183197
v -0.331256 0.489341 0.413109
v -0.376689 0.179538 0.407425
v -0.483026 0.510687 0.115156
v 0.209480 0.305685 -0.297284
v -0.157741 0.042504 -0.547195
v -0.112641 0.750852 0.153804
v -0.338111 0.758339 0.140207
v -0.342718 0.613790 -0.029342
v -0.028126 -0.132374 -0.066782
vn -0.1646 -0.8557 0.4906
vn 0.1465 0.0436 0.9883
vn 0.8360 0.1941 0.5132
vn -0.4468 0.7899 0.4199
vn 0.3037 0.5550 0.7745
vn 0.6472 -0.3699 0.6665
vn -0.7955 0.4214 0.4354
vn 0.6267 0.6454 0.4367
vn 0.4037 -0.7652 0.5015
vn -0.4584 -0.8873 -0.0513
vn 0.3538 0.9026 0.2452
vn 0.2187 0.4940 -0.8415
vn 0.5244 0.7693 0.3648
vn -0.5402 0.4974 0.6788
vn -0.2214 -0.8847 0.4101
vn -0.7724 0.2579 -0.5804
vn -0.7498 0.2859 0.5967
vn -0.5531 -0.5648 0.6124
vn -0.4359 -0.8909 -0.1278
vn -0.6421 0.5705 -0.5120
vn -0.4601 0.3290 0.8246
vn 0.5241 0.7871 -0.3254
vn 0.4531 -0.2485 -0.8561
vn -0.7464 -0.5310 -0.4011
vn 0.7654 0.4731 -0.4363
vn -0.2055 -0.9193 0.3357
vn -0.0187 0.7118 0.7021
vn -0.7780 0.2528 -0.5751
vn 0.8142 0.4344 0.3853
vn -0.2152 0.3012 -0.9290
vn 0.7689 0.3733 0.5190
vn -0.1580 0.8755 -0.4567
vn -0.7732 0.4928 -0.3991
vn 0.3003 -0.9091 0.2887
vn 0.2421 -0.8976 -0.3685
vt 0.375000 1.000000
vt 0.375000 0.000000
vt 0.625000 0.750000
vt 0.625000 0.000000
vt 0.375000 0.250000
vt 0.501449 0.250000
vt 0.625000 0.250000
vt 0.875000 0.625000
vt 0.625000 0.125000
vt 0.375000 0.750000
vt 0.375000 0.500000
vt 0.625000 0.500000
vt 0.375000 0.125000
vt 0.375000 0.092640
vt 0.375000 0.625000
vt 0.625000 0.625000
vt 0.501448 0.750000
vt 0.501448 1.000000
vt 0.501448 0.000000
vt 0.501449 0.500000
vt 0.501449 0.625000
vt 0.501448 0.125000
vt 0.125000 0.625000
vt 0.375000 0.125000
vt 0.125000 0.750000
vt 0.375000 0.000000
vt 0.375000 1.000000
vt 0.375000 0.750000
vt 0.375000 0.500000
vt 0.125000 0.500000
vt 0.375000 0.250000
vt 0.501449 0.250000
vt 0.375000 0.625000
vt 0.451458 0.901164
vt 0.375000 0.937999
vt 0.375000 0.500000
vt 0.375000 0.625000
vt 0.375000 0.750000
vt 0.375000 0.625000
vt 0.375000 0.750000
vt 0.375000 0.750000
vt 0.415218 0.063175
s 0
usemtl Material
f 14/22/1 4/7/1 3/6/1
f 3/6/2 4/7/2 7/12/2 12/20/2
f 10/17/3 2/3/3 11/18/3
f 17/29/4 6/11/4 22/36/4
f 10/16/5 4/8/5 2/3/5
f 7/12/6 4/8/6 10/16/6
f 19/33/7 17/29/7 23/39/7
f 12/20/8 7/12/8 10/16/8 13/21/8
f 11/19/9 2/4/9 4/9/9 14/22/9
f 1/2/10 25/42/10 8/14/10
f 6/11/11 12/20/11 13/21/11 9/15/11
f 5/10/12 20/34/12 21/35/12
f 9/15/13 13/21/13 10/17/13 5/10/13
f 3/6/14 12/20/14 6/11/14
f 8/13/15 14/22/15 3/5/15
f 15/23/16 19/33/16 16/25/16
f 18/30/17 17/29/17 19/33/17 15/23/17
f 8/13/18 3/5/18 18/31/18 15/24/18
f 1/2/19 8/14/19 15/24/19 16/26/19
f 5/10/20 21/35/20 16/28/20
f 3/6/21 6/11/21 17/29/21 18/32/21
f 11/18/22 20/34/22 10/17/22
f 21/35/23 20/34/23 11/18/23 1/1/23
f 16/27/24 21/35/24 1/1/24
f 10/17/25 20/34/25 5/10/25
f 8/14/26 25/42/26 14/22/26
f 22/37/27 23/39/27 17/29/27
f 16/28/28 19/33/28 24/41/28
f 6/11/29 9/15/29 22/36/29
f 5/10/30 16/28/30 24/41/30
f 9/15/31 5/10/31 22/37/31
f 24/41/32 23/40/32 22/38/32 5/10/32
f 24/41/33 19/33/33 23/40/33
f 14/22/34 25/42/34 11/19/34
f 25/42/35 1/2/35 11/19/35
