# Blender 3.5.0
# www.blender.org
mtllib Rock1.mtl
o Rock1
v 0.038009 0.376833 -1.488171
v -0.062154 1.947164 -0.779695
v 1.308277 0.984034 -0.218525
v 0.979214 1.202527 0.288174
v -1.207603 0.033271 -0.085110
v -0.597085 2.221894 -0.527095
v 0.603127 0.495495 0.799666
v 0.104665 1.751280 0.785604
v 0.691882 0.323002 -1.064450
v -0.313956 0.204296 0.543432
v -0.175421 2.068963 0.322793
v -0.203116 1.166400 -1.169552
v 0.323357 0.745439 0.977358
v -1.018894 1.668403 -0.321903
v -0.692078 0.587284 0.443577
v 0.519451 0.908318 -0.951639
v 0.527419 -0.013809 -0.807943
v 0.092320 0.022011 -1.089894
v 0.521550 -0.131758 0.911506
v 0.937579 -0.108385 -0.245049
v 0.025049 -0.092798 0.606498
v -0.882931 0.660808 -0.686580
v -0.450341 0.026399 -1.168388
v 0.316184 0.855658 -1.379874
v -1.402069 0.646149 -0.582721
v -1.686246 0.294361 -0.454532
v -0.928984 0.287489 -1.537811
v -0.713776 0.471717 -1.472717
v -0.499242 0.803331 -1.302476
v -1.149729 0.772819 -1.105136
v 0.813477 0.462029 0.643681
v 1.175363 0.587022 0.139597
v 0.987314 -0.131758 0.566979
v 1.570276 0.069593 -0.245049
v 0.232557 -0.330180 0.022253
v -0.775390 -0.141259 -0.703399
v 0.714662 -0.291516 0.374659
vn 0.1787 0.9404 -0.2894
vn 0.6793 0.1176 0.7244
vn -0.6688 0.4079 0.6215
vn -0.6383 0.2121 -0.7400
vn -0.4816 -0.3821 0.7887
vn 0.5553 0.8309 -0.0347
vn 0.5939 0.7844 0.1790
vn -0.3788 0.0691 0.9229
vn -0.5877 0.1698 0.7911
vn 0.6785 0.4729 -0.5621
vn -0.1860 0.3183 -0.9296
vn -0.2698 -0.3887 0.8810
vn 0.0919 -0.5242 -0.8466
vn -0.7375 0.0432 0.6739
vn 0.6969 0.3258 0.6389
vn 0.6279 0.3216 -0.7088
vn 0.1259 -0.9411 -0.3139
vn 0.2013 -0.9460 -0.2540
vn 0.8143 -0.3761 -0.4421
vn 0.6187 -0.4011 -0.6755
vn -0.2503 -0.9633 0.0969
vn 0.6273 0.2016 -0.7522
vn -0.6544 0.1777 -0.7350
vn -0.1715 0.4647 -0.8687
vn -0.3853 0.9224 -0.0266
vn 0.0909 -0.7374 -0.6693
vn -0.3925 -0.8454 -0.3622
vn -0.1159 -0.5654 -0.8167
vn 0.6552 0.6467 -0.3905
vn -0.8114 0.1374 -0.5681
vn -0.2607 0.5720 -0.7777
vn -0.7957 0.5514 -0.2506
vn -0.7177 0.2873 0.6343
vn 0.0005 0.3997 -0.9166
vn -0.1648 0.6628 -0.7304
vn 0.7846 0.1521 0.6010
vn 0.5958 0.0680 0.8003
vn 0.2678 -0.8929 0.3620
vn 0.6588 0.4136 0.6285
vn -0.4435 -0.8944 -0.0575
vn -0.2545 -0.9241 0.2851
vn 0.0415 -0.9504 -0.3084
vn -0.1817 -0.9456 0.2700
vn 0.3582 -0.9324 -0.0488
vt 0.375000 1.000000
vt 0.375000 0.000000
vt 0.875000 0.750000
vt 0.625000 0.000000
vt 0.625000 1.000000
vt 0.375000 0.250000
vt 0.501449 0.250000
vt 0.625000 0.250000
vt 0.875000 0.625000
vt 0.625000 0.125000
vt 0.375000 0.750000
vt 0.625000 0.750000
vt 0.375000 0.500000
vt 0.625000 0.500000
vt 0.375000 0.125000
vt 0.375000 0.625000
vt 0.625000 0.625000
vt 0.501448 1.000000
vt 0.501448 0.000000
vt 0.501449 0.500000
vt 0.501448 0.750000
vt 0.501449 0.625000
vt 0.501448 0.125000
vt 0.125000 0.625000
vt 0.375000 0.125000
vt 0.125000 0.750000
vt 0.375000 0.000000
vt 0.375000 1.000000
vt 0.375000 0.500000
vt 0.375000 0.250000
vt 0.125000 0.500000
vt 0.375000 0.625000
vt 0.451458 0.901164
vt 0.375000 0.937999
vt 0.375000 0.092640
vt 0.501448 0.750000
vt 0.375000 0.750000
vt 0.375000 0.937999
vt 0.375000 1.000000
vt 0.375000 0.000000
vt 0.501448 1.000000
vt 0.501448 0.000000
vt 0.451458 0.901164
vt 0.375000 0.500000
vt 0.375000 0.250000
vt 0.501449 0.250000
vt 0.375000 0.500000
vt 0.375000 0.250000
vt 0.501449 0.250000
vt 0.125000 0.500000
vt 0.290988 0.750000
vt 0.375000 0.834012
vt 0.271736 0.625000
vt 0.375000 0.857302
vt 0.258955 0.500000
s 0
usemtl Material
f 16/23/1 4/8/1 3/7/1
f 3/7/2 4/8/2 8/14/2 13/20/2
f 15/22/3 11/17/3 6/12/3 14/21/3
f 14/21/4 6/12/4 12/18/4
f 10/16/5 5/11/5 21/32/5
f 11/17/6 4/9/6 2/3/6 6/12/6
f 8/14/7 4/9/7 11/17/7
f 7/13/8 10/16/8 21/32/8 19/29/8
f 13/20/9 8/14/9 11/17/9 15/22/9
f 12/19/10 2/4/10 4/10/10 16/23/10
f 1/2/11 12/19/11 24/35/11
f 7/13/12 13/20/12 15/22/12 10/16/12
f 1/1/13 23/34/13 27/38/13 28/39/13
f 10/16/14 15/22/14 14/21/14 5/11/14
f 3/7/15 13/20/15 7/13/15
f 9/15/16 16/23/16 3/6/16
f 17/24/17 35/51/17 18/26/17
f 20/31/18 37/55/18 35/53/18 17/24/18
f 9/15/19 3/6/19 20/30/19 17/25/19
f 1/2/20 24/35/20 17/25/20 18/27/20
f 5/11/21 36/54/21 35/52/21
f 20/30/22 3/6/22 32/45/22 34/48/22
f 12/18/23 22/33/23 14/21/23
f 12/18/24 6/12/24 2/5/24
f 22/33/25 12/18/25 29/41/25 30/43/25
f 18/28/26 23/34/26 1/1/26
f 23/34/27 36/54/27 26/37/27 27/38/27
f 17/25/28 24/35/28 9/15/28
f 24/35/29 12/19/29 16/23/29 9/15/29
f 26/37/30 30/43/30 27/38/30
f 27/38/31 30/43/31 29/41/31 28/39/31
f 25/36/32 30/43/32 26/37/32
f 5/11/33 14/21/33 25/36/33 26/37/33
f 12/19/34 1/2/34 28/40/34 29/42/34
f 14/21/35 22/33/35 30/43/35 25/36/35
f 32/46/36 31/44/36 33/47/36 34/49/36
f 7/13/37 19/29/37 33/47/37 31/44/37
f 19/29/38 37/55/38 33/47/38
f 3/7/39 7/13/39 31/44/39 32/46/39
f 26/37/40 36/54/40 5/11/40
f 35/53/41 21/32/41 5/11/41
f 35/52/42 36/54/42 23/34/42 18/28/42
f 35/53/43 37/55/43 19/29/43 21/32/43
f 33/47/44 37/55/44 20/31/44 34/50/44
