# Blender 3.5.1
# www.blender.org
mtllib TreePine2.mtl
o TreePine2
v 0.570527 1.303954 -0.730174
v 0.360232 1.903559 -0.415420
v 0.689974 1.365457 0.501333
v 0.437336 1.917862 0.322498
v -0.558739 1.233618 -0.511023
v -0.375363 1.856617 -0.337649
v -0.536153 1.249588 0.641857
v -0.298259 1.870920 0.400270
v 0.891960 1.295829 -0.076201
v 0.555214 1.920690 -0.063211
v -0.733651 1.177484 0.073529
v -0.493284 1.853781 0.047642
v 0.035579 1.265731 0.931115
v 0.085938 1.897433 0.518330
v -0.014609 1.265251 -0.814262
v -0.023964 1.877046 -0.533481
v 0.030965 1.887235 -0.007784
v 0.070448 1.281029 -0.000237
v -0.389953 1.633168 -1.059561
v -0.119301 2.135966 -0.483883
v 1.127996 1.543568 -0.466443
v 0.581501 2.105916 -0.205254
v -0.974358 1.571129 0.362022
v -0.398188 2.138807 0.217876
v 0.704342 1.523318 1.076915
v 0.302614 2.108757 0.496505
v 0.589128 1.555046 -0.974734
v 0.290217 2.120345 -0.493902
v -0.414524 1.555407 1.197203
v -0.107301 2.124395 0.506366
v 1.159645 1.564447 0.568530
v 0.591109 2.100945 0.204886
v -1.035831 1.597591 -0.435211
v -0.407796 2.143778 -0.192264
v 0.091458 2.122370 0.006232
v 0.060924 1.550563 0.000844
v -0.081576 1.902715 -1.033720
v -0.009542 2.507948 -0.542316
v 1.018216 1.923841 -0.096515
v 0.612295 2.507948 -0.079569
v -0.952707 1.945376 0.152284
v -0.472290 2.507948 0.079521
v 0.221687 1.945183 1.033751
v 0.149547 2.507948 0.542268
v 0.676811 1.937110 -0.768329
v 0.399620 2.507948 -0.443330
v -0.558944 1.923113 0.844561
v -0.259968 2.507948 0.443020
v 0.914851 1.945184 0.628680
v 0.513178 2.507948 0.329770
v -0.785712 1.900849 -0.629286
v -0.373173 2.507948 -0.329818
v 0.069826 2.507948 -0.000155
v 0.069720 1.923113 -0.000234
v -0.366964 2.344015 -0.773023
v -0.104883 3.267565 -0.264476
v 0.933388 2.345619 -0.387675
v 0.306511 3.287711 -0.110795
v -0.783221 2.252171 0.423429
v -0.258404 3.259118 0.147596
v 0.447072 2.358728 0.887022
v 0.152990 3.279265 0.301278
v 0.385251 2.452195 -0.877429
v 0.133350 3.279428 -0.275322
v -0.252452 2.373711 0.930115
v -0.085476 3.267390 0.312036
v 0.853535 2.402542 0.311238
v 0.317248 3.287772 0.127927
v -0.843043 2.319459 -0.322540
v -0.269141 3.259057 -0.091126
v 0.023937 3.273409 0.018357
v 0.063305 2.363844 0.016038
v 0.000333 3.112685 -0.602184
v 0.072134 4.881102 -0.021513
v 0.680663 3.133675 -0.192351
v -0.384413 3.105362 0.280440
v 0.294019 3.060024 0.554312
v 0.341189 3.095155 -0.536360
v -0.192772 3.194322 0.543268
v 0.620782 3.146743 0.228297
v -0.410110 3.063369 -0.184938
v 0.147908 3.119506 0.043960
v 0.071699 0.830172 0.159581
v 0.078142 -0.004571 0.320114
v -0.134005 0.830172 0.077759
v -0.232764 -0.004571 0.073332
v 0.210563 -0.004571 -0.012801
v -0.074826 0.830172 -0.071019
v -0.249731 -0.004571 -0.195889
v 0.037405 -0.004571 -0.247618
v -0.124074 -0.004571 0.220724
v 0.040817 1.092151 -0.152227
v -0.193469 1.207274 -0.027463
v -0.135541 1.207274 -0.173097
v -0.117720 1.207274 0.075257
v -0.009933 1.207274 -0.195726
v 0.065815 1.207274 -0.093005
v 0.007887 1.207274 0.052629
v -0.148370 1.794327 -0.038863
v -0.110594 1.794327 -0.133835
v -0.098972 1.794327 0.028124
v 0.020717 1.794326 -0.081605
v -0.017060 1.794327 0.013367
v 0.071325 1.092151 -0.067023
v 0.058755 1.017677 0.097764
v -0.116084 1.703658 -0.140325
v -0.027758 1.614091 -0.156237
vn 0.8557 0.4561 0.2443
vn -0.4106 0.4627 0.7857
vn -0.9167 0.3165 -0.2439
vn 0.1023 0.4162 -0.9035
vn 0.0650 -0.9978 0.0125
vn -0.0650 0.9978 -0.0125
vn 0.0358 -0.9992 -0.0151
vn -0.9034 0.3315 0.2719
vn 0.7906 0.4781 -0.3826
vn 0.0299 -0.9911 0.1299
vn 0.0161 -0.9997 -0.0203
vn -0.4697 0.3623 -0.8051
vn 0.4341 0.4683 0.7696
vn 0.4906 0.7108 -0.5040
vn 0.4473 0.7655 0.4625
vn -0.5420 0.7509 0.3774
vn -0.4790 0.7521 -0.4527
vn -0.0306 -0.9991 -0.0308
vn 0.0384 0.9992 0.0112
vn 0.0371 -0.9982 -0.0475
vn 0.0935 0.7326 0.6742
vn 0.1170 0.6786 -0.7251
vn -0.0112 -0.9999 -0.0107
vn -0.0755 -0.9961 -0.0455
vn -0.6709 0.7376 0.0762
vn 0.6979 0.7153 -0.0358
vn 0.7565 0.5366 -0.3739
vn 0.3904 0.6335 0.6681
vn -0.6729 0.6205 0.4027
vn -0.3965 0.6085 -0.6874
vn -0.0137 -0.9984 0.0540
vn -0.0000 1.0000 -0.0000
vn 0.0115 -0.9997 0.0197
vn -0.2010 0.6222 0.7566
vn 0.2415 0.5942 -0.7672
vn -0.0012 -0.9998 -0.0191
vn 0.0405 -0.9991 0.0138
vn -0.7626 0.6159 -0.1980
vn 0.7860 0.6110 0.0941
vn 0.6072 0.5675 -0.5561
vn 0.6679 0.5395 0.5126
vn -0.6559 0.4974 0.5678
vn -0.6021 0.5175 -0.6081
vn 0.0845 -0.9918 -0.0962
vn -0.0496 0.9988 0.0020
vn 0.0611 -0.9976 -0.0328
vn 0.0631 0.5500 0.8328
vn -0.1900 0.5144 -0.8362
vn -0.0793 -0.9888 -0.1264
vn 0.1355 -0.9896 -0.0490
vn -0.8680 0.4834 0.1132
vn 0.8384 0.5427 0.0516
vn 0.6626 0.2979 -0.6872
vn 0.6317 0.3026 0.7137
vn -0.8169 0.2944 0.4960
vn -0.7053 0.2469 -0.6646
vn 0.0647 -0.9942 0.0861
vn 0.1139 -0.9825 -0.1471
vn 0.0634 0.3079 0.9493
vn 0.1957 0.2988 -0.9340
vn 0.0529 -0.9968 0.0594
vn -0.0558 -0.9982 0.0233
vn -0.9668 0.2537 0.0305
vn 0.9408 0.3155 0.1241
vn -0.8042 0.0387 0.5931
vn -0.9787 0.1958 0.0617
vn 0.8039 0.0491 -0.5928
vn -0.0000 -1.0000 -0.0000
vn -0.8014 0.0917 0.5910
vn 0.9264 0.0780 0.3685
vn -0.4349 0.1668 0.8849
vn -0.1744 0.1813 -0.9678
vn 0.9410 -0.0310 -0.3369
vn 0.9273 0.0641 0.3688
vn -0.1617 -0.4104 -0.8975
vn -0.9015 -0.2422 -0.3586
vn 0.1706 0.2713 0.9473
vn -0.8027 0.0732 0.5919
vn 0.1768 0.0732 0.9815
vn -0.9260 0.0824 -0.3683
vn -0.1985 0.1178 0.9730
vn 0.9862 0.1091 0.1246
vn -0.0627 -0.2702 -0.9608
vn 0.9365 0.1023 -0.3353
vn -0.9475 0.0430 0.3170
vn -0.9275 0.0607 -0.3689
vn 0.7503 0.0704 -0.6573
vn -0.1766 0.0874 -0.9804
vn 0.9317 0.2991 0.2062
vn 0.8431 0.4701 0.2611
vn -0.2810 0.5406 0.7930
vn -0.8997 0.3407 -0.2728
vn 0.2197 0.5127 -0.8300
vn 0.1222 -0.9908 -0.0586
vn 0.1344 -0.9878 0.0786
vn -0.7858 0.4611 0.4122
vn 0.7808 0.4302 -0.4532
vn 0.1437 -0.9896 -0.0109
vn 0.0642 -0.9979 0.0126
vn 0.4156 0.4466 0.7924
vn 0.5228 0.6956 -0.4928
vn 0.4575 0.7774 0.4317
vn -0.5125 0.6597 0.5497
vn -0.4453 0.7676 -0.4611
vn -0.0214 -0.9998 -0.0045
vn -0.0295 -0.9995 -0.0077
vn 0.0446 0.7613 0.6469
vn 0.0124 0.7502 -0.6611
vn 0.0022 -0.9998 0.0201
vn -0.0143 -0.9973 -0.0716
vn -0.6984 0.7152 0.0250
vn 0.7152 0.6989 -0.0083
vn 0.7051 0.5770 -0.4122
vn -0.6734 0.6259 0.3933
vn -0.4015 0.6056 -0.6870
vn -0.0245 -0.9995 -0.0182
vn 0.0239 -0.9996 0.0178
vn -0.1823 0.6334 0.7520
vn 0.1956 0.5552 -0.8084
vn 0.0038 -0.9995 0.0300
vn 0.0129 -0.9998 0.0178
vn -0.7591 0.6245 -0.1838
vn 0.8080 0.5558 0.1956
vn 0.5373 0.5971 -0.5956
vn 0.6165 0.4995 0.6087
vn -0.5982 0.5284 0.6025
vn -0.6400 0.5020 -0.5818
vn 0.1619 -0.9846 0.0666
vn -0.0212 -0.9998 0.0035
vn 0.0089 0.5677 0.8232
vn -0.0657 0.5740 -0.8162
vn 0.0177 -0.9964 0.0832
vn 0.0496 -0.9988 -0.0020
vn -0.8570 0.5140 0.0384
vn 0.8582 0.5119 -0.0387
vn 0.1288 -0.9641 0.2324
vn -0.2650 -0.9636 -0.0364
vn 0.0430 -0.9984 0.0371
vn 0.1056 -0.9943 -0.0136
vn -0.9234 0.1112 -0.3673
vn -0.6698 0.0664 -0.7396
vn 0.7981 0.1294 -0.5885
vn -0.9327 0.0648 -0.3547
vn 0.2254 0.3190 0.9206
vn 0.9797 0.1318 0.1508
vn 0.8014 0.0925 -0.5910
vn -0.1080 0.0697 -0.9917
vn 0.9217 0.1269 0.3666
vt 0.667506 0.179495
vt 0.283195 0.178267
vt 0.379580 0.082496
vt 0.282888 0.274345
vt 0.378659 0.370729
vt 0.667199 0.275572
vt 0.475657 0.082803
vt 0.571428 0.179188
vt 0.474736 0.371036
vt 0.571121 0.275265
vt 0.379273 0.178574
vt 0.378966 0.274651
vt 0.475350 0.178881
vt 0.475043 0.274958
vt 0.427599 0.082650
vt 0.619486 0.179341
vt 0.426679 0.370883
vt 0.619179 0.275419
vt 0.427292 0.178727
vt 0.426985 0.274805
vt 0.523389 0.179034
vt 0.475504 0.130842
vt 0.474890 0.322997
vt 0.523082 0.275112
vt 0.331234 0.178420
vt 0.379426 0.130535
vt 0.378812 0.322690
vt 0.330927 0.274498
vt 0.426832 0.322844
vt 0.427446 0.130688
vt 0.283195 0.178267
vt 0.667506 0.179495
vt 0.379580 0.082496
vt 0.282888 0.274345
vt 0.378659 0.370729
vt 0.667199 0.275572
vt 0.475657 0.082803
vt 0.571428 0.179188
vt 0.474736 0.371036
vt 0.571121 0.275265
vt 0.379273 0.178574
vt 0.378966 0.274651
vt 0.475350 0.178881
vt 0.475043 0.274958
vt 0.427599 0.082650
vt 0.619486 0.179341
vt 0.426679 0.370883
vt 0.619179 0.275419
vt 0.427292 0.178727
vt 0.426985 0.274805
vt 0.523389 0.179034
vt 0.475504 0.130842
vt 0.474890 0.322997
vt 0.523082 0.275112
vt 0.331234 0.178420
vt 0.379426 0.130535
vt 0.378812 0.322690
vt 0.330927 0.274498
vt 0.426832 0.322844
vt 0.427446 0.130688
vt 0.667506 0.179495
vt 0.283195 0.178267
vt 0.379580 0.082496
vt 0.282888 0.274345
vt 0.378659 0.370729
vt 0.667199 0.275572
vt 0.475657 0.082803
vt 0.571428 0.179188
vt 0.474736 0.371036
vt 0.571121 0.275265
vt 0.379273 0.178574
vt 0.378966 0.274651
vt 0.475350 0.178881
vt 0.475043 0.274958
vt 0.427599 0.082650
vt 0.619486 0.179341
vt 0.426679 0.370883
vt 0.619179 0.275419
vt 0.427292 0.178727
vt 0.426985 0.274805
vt 0.523389 0.179034
vt 0.475504 0.130842
vt 0.474890 0.322997
vt 0.523082 0.275112
vt 0.331234 0.178420
vt 0.379426 0.130535
vt 0.378812 0.322690
vt 0.330927 0.274498
vt 0.426832 0.322844
vt 0.427446 0.130688
vt 0.667506 0.179495
vt 0.283195 0.178267
vt 0.379580 0.082496
vt 0.282888 0.274345
vt 0.378659 0.370729
vt 0.667199 0.275572
vt 0.571428 0.179188
vt 0.475657 0.082803
vt 0.474736 0.371036
vt 0.571121 0.275265
vt 0.379273 0.178574
vt 0.378966 0.274651
vt 0.475350 0.178881
vt 0.475043 0.274958
vt 0.427599 0.082650
vt 0.619486 0.179341
vt 0.426679 0.370883
vt 0.619179 0.275419
vt 0.427292 0.178727
vt 0.426985 0.274805
vt 0.475504 0.130842
vt 0.523389 0.179034
vt 0.474890 0.322997
vt 0.523082 0.275112
vt 0.379426 0.130535
vt 0.331234 0.178420
vt 0.378812 0.322690
vt 0.330927 0.274498
vt 0.426832 0.322844
vt 0.427446 0.130688
vt 0.283195 0.178267
vt 0.667506 0.179495
vt 0.379580 0.082496
vt 0.571121 0.275265
vt 0.475043 0.274958
vt 0.378966 0.274651
vt 0.282888 0.274345
vt 0.426985 0.274805
vt 0.619179 0.275419
vt 0.330927 0.274498
vt 0.523082 0.275112
vt 0.571428 0.179188
vt 0.475657 0.082803
vt 0.379273 0.178574
vt 0.475350 0.178881
vt 0.619486 0.179341
vt 0.427599 0.082650
vt 0.427292 0.178727
vt 0.523389 0.179034
vt 0.475504 0.130842
vt 0.331234 0.178420
vt 0.379426 0.130535
vt 0.427446 0.130688
vt 0.459879 0.924335
vt 0.460836 0.842018
vt 0.377562 0.923378
vt 0.378519 0.841061
vt 0.543153 0.842975
vt 0.461793 0.759701
vt 0.542196 0.925292
vt 0.295244 0.922421
vt 0.624513 0.926250
vt 0.296202 0.840104
vt 0.379476 0.758744
vt 0.625470 0.843933
vt 0.420635 0.759222
vt 0.584312 0.843454
vt 0.418720 0.923857
vt 0.419677 0.841539
vt 0.583355 0.925771
vt 0.377562 0.923378
vt 0.295244 0.922421
vt 0.624513 0.926250
vt 0.418720 0.923857
vt 0.583355 0.925771
vt 0.542196 0.925292
vt 0.459879 0.924335
vt 0.377562 0.923378
vt 0.295244 0.922421
vt 0.418720 0.923857
vt 0.542196 0.925292
vt 0.459879 0.924335
vt 0.542196 0.925292
vt 0.459879 0.924335
vt 0.295244 0.922421
vt 0.624513 0.926250
vt 0.583355 0.925771
s 0
usemtl Material.001
f 10/18/1 3/8/1 9/16/1
f 13/21/2 8/14/2 7/13/2
f 12/20/3 5/11/3 11/19/3
f 16/28/4 1/2/4 15/25/4
f 18/30/5 5/11/5 15/26/5
f 17/29/6 2/5/6 16/27/6
f 4/9/6 17/29/6 14/23/6
f 7/13/7 18/30/7 13/22/7
f 7/13/8 12/20/8 11/19/8
f 2/6/9 9/16/9 1/1/9
f 3/7/10 18/30/10 9/15/10
f 8/14/6 17/29/6 12/20/6
f 17/29/6 6/12/6 12/20/6
f 18/30/11 1/3/11 9/15/11
f 5/11/12 16/28/12 15/25/12
f 3/8/13 14/24/13 13/21/13
f 27/46/14 22/40/14 21/38/14
f 31/51/15 26/44/15 25/43/15
f 30/50/16 23/41/16 29/49/16
f 34/58/17 19/31/17 33/55/17
f 36/60/18 23/41/18 33/56/18
f 35/59/19 20/35/19 34/57/19
f 22/39/19 35/59/19 32/53/19
f 25/43/20 36/60/20 31/52/20
f 26/44/21 29/49/21 25/43/21
f 19/32/22 28/48/22 27/46/22
f 21/37/23 36/60/23 27/45/23
f 26/44/19 35/59/19 30/50/19
f 35/59/19 24/42/19 30/50/19
f 36/60/24 19/33/24 27/45/24
f 23/41/25 34/58/25 33/55/25
f 21/38/26 32/54/26 31/51/26
f 45/76/27 40/70/27 39/68/27
f 50/84/28 43/73/28 49/81/28
f 48/80/29 41/71/29 47/79/29
f 52/88/30 37/62/30 51/85/30
f 54/90/31 41/71/31 51/86/31
f 53/89/32 38/65/32 52/87/32
f 40/69/32 53/89/32 50/83/32
f 43/73/33 54/90/33 49/82/33
f 43/73/34 48/80/34 47/79/34
f 38/66/35 45/76/35 37/61/35
f 39/67/36 54/90/36 45/75/36
f 44/74/32 53/89/32 48/80/32
f 53/89/32 42/72/32 48/80/32
f 54/90/37 37/63/37 45/75/37
f 41/71/38 52/88/38 51/85/38
f 39/68/39 50/84/39 49/81/39
f 63/106/40 58/100/40 57/97/40
f 67/112/41 62/104/41 61/103/41
f 65/109/42 60/102/42 59/101/42
f 70/118/43 55/92/43 69/116/43
f 72/120/44 59/101/44 69/115/44
f 71/119/45 56/95/45 70/117/45
f 58/99/45 71/119/45 68/113/45
f 61/103/46 72/120/46 67/111/46
f 62/104/47 65/109/47 61/103/47
f 56/96/48 63/106/48 55/91/48
f 57/98/49 72/120/49 63/105/49
f 62/104/45 71/119/45 66/110/45
f 71/119/45 60/102/45 66/110/45
f 72/120/50 55/93/50 63/105/50
f 60/102/51 69/116/51 59/101/51
f 58/100/52 67/112/52 57/97/52
f 78/136/53 74/124/53 75/132/53
f 80/139/54 74/125/54 77/135/54
f 79/138/55 74/126/55 76/134/55
f 81/141/56 74/127/56 73/121/56
f 82/143/57 76/134/57 81/142/57
f 77/135/58 82/143/58 80/140/58
f 77/135/59 74/128/59 79/138/59
f 73/122/60 74/129/60 78/136/60
f 75/133/61 82/143/61 78/137/61
f 82/143/62 73/123/62 78/137/62
f 76/134/63 74/130/63 81/141/63
f 75/132/64 74/131/64 80/139/64
f 85/146/65 95/164/65 93/161/65
f 86/147/66 88/151/66 89/153/66
f 90/157/67 92/160/67 87/148/67
f 90/156/68 86/147/68 89/154/68
f 91/158/69 85/146/69 86/147/69
f 87/150/70 83/144/70 84/145/70
f 84/145/71 83/144/71 91/159/71
f 87/149/68 91/159/68 90/156/68
f 88/152/72 90/157/72 89/155/72
f 92/160/73 97/166/73 104/173/73
f 98/167/74 102/171/74 103/172/74
f 92/160/75 94/163/75 96/165/75
f 94/162/76 85/146/76 93/161/76
f 95/164/77 105/174/77 98/167/77
f 93/161/78 101/170/78 99/168/78
f 101/170/79 98/167/79 103/172/79
f 106/175/80 99/168/80 100/169/80
f 83/144/81 95/164/81 91/158/81
f 88/151/76 85/146/76 94/162/76
f 83/144/82 104/173/82 105/174/82
f 92/160/83 88/152/83 94/163/83
f 87/150/84 92/160/84 104/173/84
f 85/146/85 91/158/85 95/164/85
f 94/162/86 93/161/86 106/175/86
f 97/166/87 107/177/87 102/171/87
f 95/164/79 98/167/79 101/170/79
f 93/161/78 95/164/78 101/170/78
f 94/163/88 107/177/88 96/165/88
f 98/167/74 97/166/74 102/171/74
f 104/173/89 98/167/89 105/174/89
f 10/18/90 4/10/90 3/8/90
f 13/21/91 14/24/91 8/14/91
f 12/20/92 6/12/92 5/11/92
f 16/28/93 2/4/93 1/2/93
f 18/30/94 11/19/94 5/11/94
f 17/29/6 10/17/6 2/5/6
f 4/9/6 10/17/6 17/29/6
f 7/13/95 11/19/95 18/30/95
f 7/13/96 8/14/96 12/20/96
f 2/6/97 10/18/97 9/16/97
f 3/7/98 13/22/98 18/30/98
f 8/14/6 14/23/6 17/29/6
f 17/29/6 16/27/6 6/12/6
f 18/30/99 15/26/99 1/3/99
f 5/11/12 6/12/12 16/28/12
f 3/8/100 4/10/100 14/24/100
f 27/46/101 28/48/101 22/40/101
f 31/51/102 32/54/102 26/44/102
f 30/50/103 24/42/103 23/41/103
f 34/58/104 20/34/104 19/31/104
f 36/60/105 29/49/105 23/41/105
f 35/59/19 28/47/19 20/35/19
f 22/39/19 28/47/19 35/59/19
f 25/43/106 29/49/106 36/60/106
f 26/44/107 30/50/107 29/49/107
f 19/32/108 20/36/108 28/48/108
f 21/37/109 31/52/109 36/60/109
f 26/44/19 32/53/19 35/59/19
f 35/59/19 34/57/19 24/42/19
f 36/60/110 33/56/110 19/33/110
f 23/41/111 24/42/111 34/58/111
f 21/38/112 22/40/112 32/54/112
f 45/76/113 46/78/113 40/70/113
f 50/84/28 44/74/28 43/73/28
f 48/80/114 42/72/114 41/71/114
f 52/88/115 38/64/115 37/62/115
f 54/90/116 47/79/116 41/71/116
f 53/89/32 46/77/32 38/65/32
f 40/69/32 46/77/32 53/89/32
f 43/73/117 47/79/117 54/90/117
f 43/73/118 44/74/118 48/80/118
f 38/66/119 46/78/119 45/76/119
f 39/67/120 49/82/120 54/90/120
f 44/74/32 50/83/32 53/89/32
f 53/89/32 52/87/32 42/72/32
f 54/90/121 51/86/121 37/63/121
f 41/71/122 42/72/122 52/88/122
f 39/68/123 40/70/123 50/84/123
f 63/106/124 64/108/124 58/100/124
f 67/112/125 68/114/125 62/104/125
f 65/109/126 66/110/126 60/102/126
f 70/118/127 56/94/127 55/92/127
f 72/120/128 65/109/128 59/101/128
f 71/119/45 64/107/45 56/95/45
f 58/99/45 64/107/45 71/119/45
f 61/103/129 65/109/129 72/120/129
f 62/104/130 66/110/130 65/109/130
f 56/96/131 64/108/131 63/106/131
f 57/98/132 67/111/132 72/120/132
f 62/104/45 68/113/45 71/119/45
f 71/119/45 70/117/45 60/102/45
f 72/120/133 69/115/133 55/93/133
f 60/102/134 70/118/134 69/116/134
f 58/100/135 68/114/135 67/112/135
f 82/143/136 79/138/136 76/134/136
f 77/135/137 79/138/137 82/143/137
f 75/133/138 80/140/138 82/143/138
f 82/143/139 81/142/139 73/123/139
f 86/147/140 85/146/140 88/151/140
f 90/156/68 91/159/68 86/147/68
f 87/149/68 84/145/68 91/159/68
f 88/152/141 92/160/141 90/157/141
f 92/160/142 96/165/142 97/166/142
f 106/175/143 93/161/143 99/168/143
f 83/144/144 105/174/144 95/164/144
f 83/144/145 87/150/145 104/173/145
f 97/166/146 96/165/146 107/177/146
f 94/163/147 106/176/147 107/177/147
f 104/173/148 97/166/148 98/167/148
